<svg width="72" height="10" viewBox="0 0 72 10" fill="none" xmlns="http://www.w3.org/2000/svg">
<path d="M15.8806 0.199219H16.9207V4.30547H22.5533V0.199219H23.5933V9.6409H22.5533V5.30502H16.9207V9.6409H15.8806V0.199219Z" fill="#2D2D2D"/>
<path d="M30.3484 9.84351C28.2142 9.84351 26.6474 8.23613 26.6474 6.10196C26.6474 4.12988 26.6609 2.1713 26.6609 0.199219H27.701C27.701 2.15779 27.6875 4.12988 27.6875 6.08845C27.6875 7.70934 28.687 8.85747 30.3484 8.85747C31.9963 8.85747 32.9824 7.69583 32.9824 6.08845C32.9824 4.12988 32.9689 2.15779 32.9689 0.199219H34.0089C34.0089 2.1713 34.0224 4.12988 34.0224 6.10196C34.0224 8.22262 32.4961 9.84351 30.3484 9.84351Z" fill="#2D2D2D"/>
<path d="M37.0756 9.6409V0.199219H41.0603C42.6137 0.199219 43.6808 1.14474 43.6808 2.54951C43.6808 3.441 43.2485 4.21092 42.3705 4.69719C43.4511 5.14293 44.0455 6.04793 44.0455 7.12852C44.0455 8.61434 42.9243 9.6409 41.317 9.6409H37.0756ZM38.1157 5.23748V8.68187H41.1008C42.2355 8.68187 42.9514 8.0065 42.9514 6.95293C42.9514 5.91285 42.2355 5.23748 41.1279 5.23748H38.1157ZM40.9252 1.15825H38.1157V4.30547H40.9658C42.0193 4.30547 42.6812 3.71115 42.6812 2.75212C42.6812 1.77959 42.0058 1.15825 40.9252 1.15825Z" fill="#2D2D2D"/>
<path d="M46.8421 9.6409V0.199219H50.8268C52.3802 0.199219 53.4473 1.14474 53.4473 2.54951C53.4473 3.441 53.015 4.21092 52.137 4.69719C53.2176 5.14293 53.812 6.04793 53.812 7.12852C53.812 8.61434 52.6908 9.6409 51.0835 9.6409H46.8421ZM47.8822 5.23748V8.68187H50.8673C52.002 8.68187 52.7178 8.0065 52.7178 6.95293C52.7178 5.91285 52.002 5.23748 50.8944 5.23748H47.8822ZM50.6917 1.15825H47.8822V4.30547H50.7323C51.7858 4.30547 52.4477 3.71115 52.4477 2.75212C52.4477 1.77959 51.7723 1.15825 50.6917 1.15825Z" fill="#2D2D2D"/>
<path d="M56.6086 9.6409V0.199219H57.6487V8.65486H62.9706V9.6409H56.6086Z" fill="#2D2D2D"/>
<path d="M65.5705 0.199219H72V1.18526H66.6105V4.30547H71.4327V5.30502H66.6105V8.65486H72V9.6409H65.5705V0.199219Z" fill="#2D2D2D"/>
<path d="M9.10282 2.81378C9.10282 4.07062 8.08395 5.08949 6.82712 5.08949C5.57028 5.08949 4.55141 4.07062 4.55141 2.81378C4.55141 1.55695 5.57028 0.538079 6.82712 0.538079C8.08395 0.538079 9.10282 1.55695 9.10282 2.81378Z" fill="#2D2D2D"/>
<path d="M9.10282 7.3652C9.10282 8.62203 8.08395 9.6409 6.82712 9.6409C5.57028 9.6409 4.55141 8.62203 4.55141 7.3652C4.55141 6.10836 5.57028 5.08949 6.82712 5.08949C8.08395 5.08949 9.10282 6.10836 9.10282 7.3652Z" fill="#2D2D2D"/>
<path d="M4.55141 2.81378C4.55141 4.07062 3.53254 5.08949 2.27571 5.08949C1.01887 5.08949 0 4.07062 0 2.81378C0 1.55695 1.01887 0.538079 2.27571 0.538079C3.53254 0.538079 4.55141 1.55695 4.55141 2.81378Z" fill="#2D2D2D"/>
<path d="M4.55141 7.3652C4.55141 8.62203 3.53254 9.6409 2.27571 9.6409C1.01887 9.6409 0 8.62203 0 7.3652C0 6.10836 1.01887 5.08949 2.27571 5.08949C3.53254 5.08949 4.55141 6.10836 4.55141 7.3652Z" fill="#2D2D2D"/>
</svg>
