<svg width="19" height="20" viewBox="0 0 19 20" fill="none" xmlns="http://www.w3.org/2000/svg">
<ellipse cx="9.55207" cy="17.7197" rx="1.29426" ry="1.32326" fill="#2D2D2D"/>
<ellipse cx="6.96222" cy="17.7197" rx="1.29426" ry="1.32326" fill="#2D2D2D"/>
<ellipse cx="12.138" cy="9.78029" rx="1.29426" ry="1.32326" fill="#2D2D2D"/>
<ellipse cx="9.55207" cy="9.78029" rx="1.29426" ry="1.32326" fill="#2D2D2D"/>
<ellipse cx="9.55207" cy="7.13185" rx="1.29426" ry="1.32326" fill="#2D2D2D"/>
<ellipse cx="6.96222" cy="9.78029" rx="1.29426" ry="1.32326" fill="#2D2D2D"/>
<ellipse cx="12.138" cy="17.7197" rx="1.29426" ry="1.32326" fill="#2D2D2D"/>
<ellipse cx="14.7239" cy="15.0713" rx="1.29426" ry="1.32326" fill="#2D2D2D"/>
<ellipse cx="17.3177" cy="12.4229" rx="1.29426" ry="1.32326" fill="#2D2D2D"/>
<ellipse cx="17.3177" cy="9.78029" rx="1.29426" ry="1.32326" fill="#2D2D2D"/>
<ellipse cx="17.3177" cy="7.13185" rx="1.29426" ry="1.32326" fill="#2D2D2D"/>
<ellipse cx="14.7239" cy="4.48341" rx="1.29426" ry="1.32326" fill="#2D2D2D"/>
<ellipse cx="1.29426" cy="1.32326" rx="1.29426" ry="1.32326" transform="matrix(-1 0 0 1 5.66797 13.748)" fill="#2D2D2D"/>
<ellipse cx="1.29426" cy="1.32326" rx="1.29426" ry="1.32326" transform="matrix(-1 0 0 1 3.07812 11.0996)" fill="#2D2D2D"/>
<ellipse cx="1.29426" cy="1.32326" rx="1.29426" ry="1.32326" transform="matrix(-1 0 0 1 3.07812 8.45703)" fill="#2D2D2D"/>
<ellipse cx="1.29426" cy="1.32326" rx="1.29426" ry="1.32326" transform="matrix(-1 0 0 1 3.07812 5.80859)" fill="#2D2D2D"/>
<ellipse cx="1.29426" cy="1.32326" rx="1.29426" ry="1.32326" transform="matrix(-1 0 0 1 5.66797 3.16016)" fill="#2D2D2D"/>
<ellipse cx="12.138" cy="1.83888" rx="1.29426" ry="1.32326" fill="#2D2D2D"/>
<ellipse cx="9.55207" cy="1.83888" rx="1.29426" ry="1.32326" fill="#2D2D2D"/>
<ellipse cx="6.96222" cy="1.83888" rx="1.29426" ry="1.32326" fill="#2D2D2D"/>
<ellipse cx="9.55207" cy="12.4229" rx="1.29426" ry="1.32326" fill="#2D2D2D"/>
</svg>
