<svg width="22" height="18" viewBox="0 0 22 18" fill="none" xmlns="http://www.w3.org/2000/svg">
<circle cx="5" cy="15" r="1" fill="#2D2D2D"/>
<circle cx="7" cy="17" r="1" fill="#2D2D2D"/>
<circle cx="5" cy="17" r="1" fill="#2D2D2D"/>
<circle cx="3" cy="15" r="1" fill="#2D2D2D"/>
<circle cx="11" cy="13" r="1" fill="#2D2D2D"/>
<circle cx="17" cy="15" r="1" fill="#2D2D2D"/>
<circle cx="15" cy="17" r="1" fill="#2D2D2D"/>
<circle cx="17" cy="17" r="1" fill="#2D2D2D"/>
<circle cx="19" cy="13" r="1" fill="#2D2D2D"/>
<circle cx="19" cy="15" r="1" fill="#2D2D2D"/>
<circle cx="21" cy="13" r="1" fill="#2D2D2D"/>
<circle cx="5" cy="11" r="1" fill="#2D2D2D"/>
<circle cx="5" cy="9" r="1" fill="#2D2D2D"/>
<circle cx="5" cy="7" r="1" fill="#2D2D2D"/>
<circle cx="5" cy="5" r="1" fill="#2D2D2D"/>
<circle cx="5" cy="3" r="1" fill="#2D2D2D"/>
<circle cx="5" cy="1" r="1" fill="#2D2D2D"/>
<circle cx="7" cy="5" r="1" fill="#2D2D2D"/>
<circle cx="7" cy="3" r="1" fill="#2D2D2D"/>
<circle cx="7" cy="1" r="1" fill="#2D2D2D"/>
<circle cx="9" cy="5" r="1" fill="#2D2D2D"/>
<circle cx="9" cy="3" r="1" fill="#2D2D2D"/>
<circle cx="9" cy="1" r="1" fill="#2D2D2D"/>
<circle cx="13" cy="1" r="1" fill="#2D2D2D"/>
<circle cx="13" cy="5" r="1" fill="#2D2D2D"/>
<circle cx="13" cy="3" r="1" fill="#2D2D2D"/>
<circle cx="15" cy="5" r="1" fill="#2D2D2D"/>
<circle cx="15" cy="3" r="1" fill="#2D2D2D"/>
<circle cx="15" cy="1" r="1" fill="#2D2D2D"/>
<circle cx="17" cy="5" r="1" fill="#2D2D2D"/>
<circle cx="17" cy="3" r="1" fill="#2D2D2D"/>
<circle cx="17" cy="1" r="1" fill="#2D2D2D"/>
<circle cx="17" cy="7" r="1" fill="#2D2D2D"/>
<circle cx="19" cy="7" r="1" fill="#2D2D2D"/>
<circle cx="19" cy="5" r="1" fill="#2D2D2D"/>
<circle cx="19" cy="3" r="1" fill="#2D2D2D"/>
<circle cx="21" cy="7" r="1" fill="#2D2D2D"/>
<circle cx="17" cy="9" r="1" fill="#2D2D2D"/>
<circle cx="19" cy="9" r="1" fill="#2D2D2D"/>
<circle cx="21" cy="9" r="1" fill="#2D2D2D"/>
<circle cx="11" cy="11" r="1" fill="#2D2D2D"/>
<circle cx="11" cy="9" r="1" fill="#2D2D2D"/>
<circle cx="11" cy="7" r="1" fill="#2D2D2D"/>
<circle cx="11" cy="5" r="1" fill="#2D2D2D"/>
<circle cx="11" cy="3" r="1" fill="#2D2D2D"/>
<circle cx="17" cy="11" r="1" fill="#2D2D2D"/>
<circle cx="19" cy="11" r="1" fill="#2D2D2D"/>
<circle cx="21" cy="11" r="1" fill="#2D2D2D"/>
<circle cx="1" cy="13" r="1" fill="#2D2D2D"/>
<circle cx="13" cy="13" r="1" fill="#2D2D2D"/>
<circle cx="15" cy="13" r="1" fill="#2D2D2D"/>
<circle cx="1" cy="11" r="1" fill="#2D2D2D"/>
<circle cx="1" cy="9" r="1" fill="#2D2D2D"/>
<circle cx="3" cy="9" r="1" fill="#2D2D2D"/>
<circle cx="3" cy="7" r="1" fill="#2D2D2D"/>
<circle cx="1" cy="7" r="1" fill="#2D2D2D"/>
<circle cx="3" cy="5" r="1" fill="#2D2D2D"/>
<circle cx="3" cy="3" r="1" fill="#2D2D2D"/>
<circle cx="7" cy="11" r="1" fill="#2D2D2D"/>
<circle cx="13" cy="11" r="1" fill="#2D2D2D"/>
<circle cx="3" cy="13" r="1" fill="#2D2D2D"/>
<circle cx="9" cy="13" r="1" fill="#2D2D2D"/>
<circle cx="7" cy="13" r="1" fill="#2D2D2D"/>
<circle cx="3" cy="11" r="1" fill="#2D2D2D"/>
<circle cx="9" cy="11" r="1" fill="#2D2D2D"/>
<circle cx="15" cy="11" r="1" fill="#2D2D2D"/>
</svg>
