<svg width="16" height="21" viewBox="0 0 16 21" fill="none" xmlns="http://www.w3.org/2000/svg">
<ellipse cx="7.75156" cy="1.86178" rx="1.34531" ry="1.37545" fill="#2D2D2D"/>
<ellipse cx="7.75156" cy="8.04342" rx="1.34531" ry="1.37545" fill="#2D2D2D"/>
<ellipse cx="7.75156" cy="11.1333" rx="1.34531" ry="1.37545" fill="#2D2D2D"/>
<ellipse cx="7.92343" cy="14.4028" rx="1.34531" ry="1.37545" fill="#2D2D2D"/>
<ellipse cx="13.9703" cy="13.1938" rx="1.34531" ry="1.37545" fill="#2D2D2D"/>
<ellipse cx="13.9703" cy="16.2856" rx="1.34531" ry="1.37545" fill="#2D2D2D"/>
<ellipse cx="10.9469" cy="19.3774" rx="1.34531" ry="1.37545" fill="#2D2D2D"/>
<ellipse cx="13.9703" cy="19.3774" rx="1.34531" ry="1.37545" fill="#2D2D2D"/>
<ellipse cx="7.92343" cy="19.3774" rx="1.34531" ry="1.37545" fill="#2D2D2D"/>
<ellipse cx="4.9" cy="19.3774" rx="1.34531" ry="1.37545" fill="#2D2D2D"/>
<ellipse cx="1.87656" cy="19.3774" rx="1.34531" ry="1.37545" fill="#2D2D2D"/>
<ellipse cx="1.70468" cy="16.1079" rx="1.34531" ry="1.37545" fill="#2D2D2D"/>
<ellipse cx="1.87656" cy="13.1938" rx="1.34531" ry="1.37545" fill="#2D2D2D"/>
<ellipse cx="5.73593" cy="3.92233" rx="1.34531" ry="1.37545" fill="#2D2D2D"/>
<ellipse cx="9.76718" cy="3.92233" rx="1.34531" ry="1.37545" fill="#2D2D2D"/>
<ellipse cx="3.72031" cy="5.98288" rx="1.34531" ry="1.37545" fill="#2D2D2D"/>
<ellipse cx="11.7828" cy="5.98288" rx="1.34531" ry="1.37545" fill="#2D2D2D"/>
</svg>
