<svg width="36" height="37" viewBox="0 0 36 37" fill="none" xmlns="http://www.w3.org/2000/svg">
<g opacity="0.1">
<circle cx="33.9727" cy="10.0078" r="2" fill="#2D2D2D"/>
<circle cx="33.9727" cy="14.0078" r="2" fill="#2D2D2D"/>
<circle cx="33.9727" cy="18.0078" r="2" fill="#2D2D2D"/>
<circle cx="29.9727" cy="6.00781" r="2" fill="#2D2D2D"/>
<circle cx="29.9727" cy="10.0078" r="2" fill="#2D2D2D"/>
<circle cx="29.9727" cy="14.0078" r="2" fill="#2D2D2D"/>
<circle cx="29.9727" cy="18.0078" r="2" fill="#2D2D2D"/>
<circle cx="29.9727" cy="22.0078" r="2" fill="#2D2D2D"/>
<circle cx="29.9727" cy="30.0078" r="2" fill="#2D2D2D"/>
<circle cx="29.9727" cy="26.0078" r="2" fill="#2D2D2D"/>
<circle cx="33.9727" cy="22.0078" r="2" fill="#2D2D2D"/>
<circle cx="33.9727" cy="26.0078" r="2" fill="#2D2D2D"/>
<circle cx="14" cy="2.00781" r="2" fill="#2D2D2D"/>
<circle cx="14" cy="6.00781" r="2" fill="#2D2D2D"/>
<circle cx="14" cy="10.0078" r="2" fill="#2D2D2D"/>
<circle cx="14" cy="18.0078" r="2" fill="#2D2D2D"/>
<circle cx="14" cy="22.0078" r="2" fill="#2D2D2D"/>
<circle cx="14" cy="30.0078" r="2" fill="#2D2D2D"/>
<circle cx="22" cy="2.00781" r="2" fill="#2D2D2D"/>
<circle cx="25.9863" cy="2.00781" r="2" fill="#2D2D2D"/>
<circle cx="22" cy="6.00781" r="2" fill="#2D2D2D"/>
<circle cx="25.9863" cy="6.00781" r="2" fill="#2D2D2D"/>
<circle cx="22" cy="10.0078" r="2" fill="#2D2D2D"/>
<circle cx="25.9863" cy="10.0078" r="2" fill="#2D2D2D"/>
<circle cx="22" cy="14.0078" r="2" fill="#2D2D2D"/>
<circle cx="25.9863" cy="14.0078" r="2" fill="#2D2D2D"/>
<circle cx="22" cy="18.0078" r="2" fill="#2D2D2D"/>
<circle cx="25.9863" cy="18.0078" r="2" fill="#2D2D2D"/>
<circle cx="22" cy="22.0078" r="2" fill="#2D2D2D"/>
<circle cx="25.9863" cy="22.0078" r="2" fill="#2D2D2D"/>
<circle cx="22" cy="30.0078" r="2" fill="#2D2D2D"/>
<circle cx="25.9863" cy="30.0078" r="2" fill="#2D2D2D"/>
<circle cx="10" cy="2.00781" r="2" fill="#2D2D2D"/>
<circle cx="10" cy="6.00781" r="2" fill="#2D2D2D"/>
<circle cx="10" cy="10.0078" r="2" fill="#2D2D2D"/>
<circle cx="10" cy="14.0078" r="2" fill="#2D2D2D"/>
<circle cx="14" cy="14.0078" r="2" fill="#2D2D2D"/>
<circle cx="10" cy="18.0078" r="2" fill="#2D2D2D"/>
<circle cx="10" cy="22.0078" r="2" fill="#2D2D2D"/>
<circle cx="10" cy="30.0078" r="2" fill="#2D2D2D"/>
<circle cx="6" cy="6.00781" r="2" fill="#2D2D2D"/>
<circle cx="2" cy="2" r="2" transform="matrix(1 0 0 -1 12 28.0078)" fill="#2D2D2D"/>
<circle cx="2" cy="2" r="2" transform="matrix(1 0 0 -1 12 36.0078)" fill="#2D2D2D"/>
<circle cx="2" cy="2" r="2" transform="matrix(1 0 0 -1 20 28.0078)" fill="#2D2D2D"/>
<circle cx="2" cy="2" r="2" transform="matrix(1 0 0 -1 23.9863 28.0078)" fill="#2D2D2D"/>
<circle cx="2" cy="2" r="2" transform="matrix(1 0 0 -1 20 36.0078)" fill="#2D2D2D"/>
<circle cx="2" cy="2" r="2" transform="matrix(1 0 0 -1 23.9863 36.0078)" fill="#2D2D2D"/>
<circle cx="18" cy="2.00781" r="2" fill="#2D2D2D"/>
<circle cx="18" cy="6.00781" r="2" fill="#2D2D2D"/>
<circle cx="18" cy="10.0078" r="2" fill="#2D2D2D"/>
<circle cx="18" cy="14.0078" r="2" fill="#2D2D2D"/>
<circle cx="18" cy="18.0078" r="2" fill="#2D2D2D"/>
<circle cx="18" cy="22.0078" r="2" fill="#2D2D2D"/>
<circle cx="18" cy="30.0078" r="2" fill="#2D2D2D"/>
<circle cx="2" cy="2" r="2" transform="matrix(1 0 0 -1 16 28.0078)" fill="#2D2D2D"/>
<circle cx="2" cy="2" r="2" transform="matrix(1 0 0 -1 16 36.0078)" fill="#2D2D2D"/>
<circle cx="2" cy="2" r="2" transform="matrix(1 0 0 -1 8 28.0078)" fill="#2D2D2D"/>
<circle cx="2" cy="2" r="2" transform="matrix(1 0 0 -1 8 36.0078)" fill="#2D2D2D"/>
<circle cx="6" cy="10.0078" r="2" fill="#2D2D2D"/>
<circle cx="6" cy="14.0078" r="2" fill="#2D2D2D"/>
<circle cx="6" cy="18.0078" r="2" fill="#2D2D2D"/>
<circle cx="6" cy="22.0078" r="2" fill="#2D2D2D"/>
<circle cx="6" cy="30.0078" r="2" fill="#2D2D2D"/>
<circle cx="6" cy="26.0078" r="2" fill="#2D2D2D"/>
<circle cx="2" cy="22.0078" r="2" fill="#2D2D2D"/>
<circle cx="2" cy="26.0078" r="2" fill="#2D2D2D"/>
<circle cx="2" cy="10.0078" r="2" fill="#2D2D2D"/>
<circle cx="2" cy="14.0078" r="2" fill="#2D2D2D"/>
<circle cx="2" cy="18.0078" r="2" fill="#2D2D2D"/>
</g>
<mask id="mask0_2145_37710" style="mask-type:alpha" maskUnits="userSpaceOnUse" x="9" y="9" width="21" height="20">
<rect x="9.20508" y="9.13281" width="19.8672" height="19.8672" fill="#D9D9D9"/>
</mask>
<g mask="url(#mask0_2145_37710)">
<path d="M18.3116 25.6901C18.0771 25.6901 17.8805 25.6108 17.7218 25.4521C17.5632 25.2935 17.4838 25.0968 17.4838 24.8623V19.8955L12.6826 13.7698C12.4757 13.4939 12.4446 13.2041 12.5895 12.9006C12.7343 12.5971 12.9861 12.4453 13.3448 12.4453H24.934C25.2927 12.4453 25.5445 12.5971 25.6894 12.9006C25.8343 13.2041 25.8032 13.4939 25.5963 13.7698L20.795 19.8955V24.8623C20.795 25.0968 20.7157 25.2935 20.557 25.4521C20.3984 25.6108 20.2018 25.6901 19.9672 25.6901H18.3116ZM19.1394 19.316L23.237 14.1009H15.0418L19.1394 19.316Z" fill="#2D2D2D"/>
</g>
</svg>
