<svg width="36" height="37" viewBox="0 0 36 37" fill="none" xmlns="http://www.w3.org/2000/svg">
<g opacity="0.15">
<circle cx="33.9727" cy="10.0078" r="2" fill="#EDEBE9"/>
<circle cx="33.9727" cy="14.0078" r="2" fill="#EDEBE9"/>
<circle cx="33.9727" cy="18.0078" r="2" fill="#EDEBE9"/>
<circle cx="29.9727" cy="6.00781" r="2" fill="#EDEBE9"/>
<circle cx="29.9727" cy="10.0078" r="2" fill="#EDEBE9"/>
<circle cx="29.9727" cy="14.0078" r="2" fill="#EDEBE9"/>
<circle cx="29.9727" cy="18.0078" r="2" fill="#EDEBE9"/>
<circle cx="29.9727" cy="22.0078" r="2" fill="#EDEBE9"/>
<circle cx="29.9727" cy="30.0078" r="2" fill="#EDEBE9"/>
<circle cx="29.9727" cy="26.0078" r="2" fill="#EDEBE9"/>
<circle cx="33.9727" cy="22.0078" r="2" fill="#EDEBE9"/>
<circle cx="33.9727" cy="26.0078" r="2" fill="#EDEBE9"/>
<circle cx="14" cy="2.00781" r="2" fill="#EDEBE9"/>
<circle cx="14" cy="6.00781" r="2" fill="#EDEBE9"/>
<circle cx="14" cy="10.0078" r="2" fill="#EDEBE9"/>
<circle cx="14" cy="18.0078" r="2" fill="#EDEBE9"/>
<circle cx="14" cy="22.0078" r="2" fill="#EDEBE9"/>
<circle cx="14" cy="30.0078" r="2" fill="#EDEBE9"/>
<circle cx="22" cy="2.00781" r="2" fill="#EDEBE9"/>
<circle cx="25.9863" cy="2.00781" r="2" fill="#EDEBE9"/>
<circle cx="22" cy="6.00781" r="2" fill="#EDEBE9"/>
<circle cx="25.9863" cy="6.00781" r="2" fill="#EDEBE9"/>
<circle cx="22" cy="10.0078" r="2" fill="#EDEBE9"/>
<circle cx="25.9863" cy="10.0078" r="2" fill="#EDEBE9"/>
<circle cx="22" cy="14.0078" r="2" fill="#EDEBE9"/>
<circle cx="25.9863" cy="14.0078" r="2" fill="#EDEBE9"/>
<circle cx="22" cy="18.0078" r="2" fill="#EDEBE9"/>
<circle cx="25.9863" cy="18.0078" r="2" fill="#EDEBE9"/>
<circle cx="22" cy="22.0078" r="2" fill="#EDEBE9"/>
<circle cx="25.9863" cy="22.0078" r="2" fill="#EDEBE9"/>
<circle cx="22" cy="30.0078" r="2" fill="#EDEBE9"/>
<circle cx="25.9863" cy="30.0078" r="2" fill="#EDEBE9"/>
<circle cx="10" cy="2.00781" r="2" fill="#EDEBE9"/>
<circle cx="10" cy="6.00781" r="2" fill="#EDEBE9"/>
<circle cx="10" cy="10.0078" r="2" fill="#EDEBE9"/>
<circle cx="10" cy="14.0078" r="2" fill="#EDEBE9"/>
<circle cx="14" cy="14.0078" r="2" fill="#EDEBE9"/>
<circle cx="10" cy="18.0078" r="2" fill="#EDEBE9"/>
<circle cx="10" cy="22.0078" r="2" fill="#EDEBE9"/>
<circle cx="10" cy="30.0078" r="2" fill="#EDEBE9"/>
<circle cx="6" cy="6.00781" r="2" fill="#EDEBE9"/>
<circle cx="2" cy="2" r="2" transform="matrix(1 0 0 -1 12 28.0078)" fill="#EDEBE9"/>
<circle cx="2" cy="2" r="2" transform="matrix(1 0 0 -1 12 36.0078)" fill="#EDEBE9"/>
<circle cx="2" cy="2" r="2" transform="matrix(1 0 0 -1 20 28.0078)" fill="#EDEBE9"/>
<circle cx="2" cy="2" r="2" transform="matrix(1 0 0 -1 23.9863 28.0078)" fill="#EDEBE9"/>
<circle cx="2" cy="2" r="2" transform="matrix(1 0 0 -1 20 36.0078)" fill="#EDEBE9"/>
<circle cx="2" cy="2" r="2" transform="matrix(1 0 0 -1 23.9863 36.0078)" fill="#EDEBE9"/>
<circle cx="18" cy="2.00781" r="2" fill="#EDEBE9"/>
<circle cx="18" cy="6.00781" r="2" fill="#EDEBE9"/>
<circle cx="18" cy="10.0078" r="2" fill="#EDEBE9"/>
<circle cx="18" cy="14.0078" r="2" fill="#EDEBE9"/>
<circle cx="18" cy="18.0078" r="2" fill="#EDEBE9"/>
<circle cx="18" cy="22.0078" r="2" fill="#EDEBE9"/>
<circle cx="18" cy="30.0078" r="2" fill="#EDEBE9"/>
<circle cx="2" cy="2" r="2" transform="matrix(1 0 0 -1 16 28.0078)" fill="#EDEBE9"/>
<circle cx="2" cy="2" r="2" transform="matrix(1 0 0 -1 16 36.0078)" fill="#EDEBE9"/>
<circle cx="2" cy="2" r="2" transform="matrix(1 0 0 -1 8 28.0078)" fill="#EDEBE9"/>
<circle cx="2" cy="2" r="2" transform="matrix(1 0 0 -1 8 36.0078)" fill="#EDEBE9"/>
<circle cx="6" cy="10.0078" r="2" fill="#EDEBE9"/>
<circle cx="6" cy="14.0078" r="2" fill="#EDEBE9"/>
<circle cx="6" cy="18.0078" r="2" fill="#EDEBE9"/>
<circle cx="6" cy="22.0078" r="2" fill="#EDEBE9"/>
<circle cx="6" cy="30.0078" r="2" fill="#EDEBE9"/>
<circle cx="6" cy="26.0078" r="2" fill="#EDEBE9"/>
<circle cx="2" cy="22.0078" r="2" fill="#EDEBE9"/>
<circle cx="2" cy="26.0078" r="2" fill="#EDEBE9"/>
<circle cx="2" cy="10.0078" r="2" fill="#EDEBE9"/>
<circle cx="2" cy="14.0078" r="2" fill="#EDEBE9"/>
<circle cx="2" cy="18.0078" r="2" fill="#EDEBE9"/>
</g>
<path d="M23.3208 23.7799L20.6373 21.1133C20.218 21.4466 19.7358 21.7105 19.1908 21.9049C18.6457 22.0994 18.0657 22.1966 17.4507 22.1966C15.9273 22.1966 14.638 21.6723 13.5828 20.6237C12.5276 19.5751 12 18.2938 12 16.7799C12 15.2661 12.5276 13.9848 13.5828 12.9362C14.638 11.8876 15.9273 11.3633 17.4507 11.3633C18.9741 11.3633 20.2635 11.8876 21.3187 12.9362C22.3739 13.9848 22.9015 15.2661 22.9015 16.7799C22.9015 17.3911 22.8036 17.9674 22.608 18.5091C22.4123 19.0508 22.1467 19.5299 21.8113 19.9466L24.5157 22.6341C24.6695 22.7869 24.7463 22.9744 24.7463 23.1966C24.7463 23.4188 24.6625 23.6133 24.4948 23.7799C24.341 23.9327 24.1454 24.0091 23.9078 24.0091C23.6702 24.0091 23.4745 23.9327 23.3208 23.7799ZM17.4507 20.5299C18.499 20.5299 19.3899 20.1654 20.1237 19.4362C20.8574 18.707 21.2243 17.8216 21.2243 16.7799C21.2243 15.7383 20.8574 14.8529 20.1237 14.1237C19.3899 13.3945 18.499 13.0299 17.4507 13.0299C16.4025 13.0299 15.5115 13.3945 14.7778 14.1237C14.044 14.8529 13.6771 15.7383 13.6771 16.7799C13.6771 17.8216 14.044 18.707 14.7778 19.4362C15.5115 20.1654 16.4025 20.5299 17.4507 20.5299Z" fill="#EDEBE9"/>
</svg>
