<svg width="37" height="37" viewBox="0 0 37 37" fill="none" xmlns="http://www.w3.org/2000/svg">
<g opacity="0.15">
<ellipse cx="34.4429" cy="10.0605" rx="2.00152" ry="2" fill="#2D2D2D"/>
<ellipse cx="34.4429" cy="14.0605" rx="2.00152" ry="2" fill="#2D2D2D"/>
<ellipse cx="34.4429" cy="18.0605" rx="2.00152" ry="2" fill="#2D2D2D"/>
<ellipse cx="30.441" cy="6.06055" rx="2.00152" ry="2" fill="#2D2D2D"/>
<ellipse cx="30.441" cy="10.0605" rx="2.00152" ry="2" fill="#2D2D2D"/>
<ellipse cx="30.441" cy="14.0605" rx="2.00152" ry="2" fill="#2D2D2D"/>
<ellipse cx="30.441" cy="18.0605" rx="2.00152" ry="2" fill="#2D2D2D"/>
<ellipse cx="30.441" cy="22.0605" rx="2.00152" ry="2" fill="#2D2D2D"/>
<ellipse cx="30.441" cy="30.0605" rx="2.00152" ry="2" fill="#2D2D2D"/>
<ellipse cx="30.441" cy="26.0605" rx="2.00152" ry="2" fill="#2D2D2D"/>
<ellipse cx="34.4429" cy="22.0605" rx="2.00152" ry="2" fill="#2D2D2D"/>
<ellipse cx="34.4429" cy="26.0605" rx="2.00152" ry="2" fill="#2D2D2D"/>
<ellipse cx="14.4566" cy="2.06055" rx="2.00152" ry="2" fill="#2D2D2D"/>
<ellipse cx="14.4566" cy="6.06055" rx="2.00152" ry="2" fill="#2D2D2D"/>
<ellipse cx="14.4566" cy="10.0605" rx="2.00152" ry="2" fill="#2D2D2D"/>
<ellipse cx="14.4566" cy="18.0605" rx="2.00152" ry="2" fill="#2D2D2D"/>
<ellipse cx="14.4566" cy="22.0605" rx="2.00152" ry="2" fill="#2D2D2D"/>
<ellipse cx="14.4566" cy="30.0605" rx="2.00152" ry="2" fill="#2D2D2D"/>
<ellipse cx="22.4625" cy="2.06055" rx="2.00152" ry="2" fill="#2D2D2D"/>
<ellipse cx="26.4507" cy="2.06055" rx="2.00152" ry="2" fill="#2D2D2D"/>
<ellipse cx="22.4625" cy="6.06055" rx="2.00152" ry="2" fill="#2D2D2D"/>
<ellipse cx="26.4507" cy="6.06055" rx="2.00152" ry="2" fill="#2D2D2D"/>
<ellipse cx="22.4625" cy="10.0605" rx="2.00152" ry="2" fill="#2D2D2D"/>
<ellipse cx="26.4507" cy="10.0605" rx="2.00152" ry="2" fill="#2D2D2D"/>
<ellipse cx="22.4625" cy="14.0605" rx="2.00152" ry="2" fill="#2D2D2D"/>
<ellipse cx="26.4507" cy="14.0605" rx="2.00152" ry="2" fill="#2D2D2D"/>
<ellipse cx="22.4625" cy="18.0605" rx="2.00152" ry="2" fill="#2D2D2D"/>
<ellipse cx="26.4507" cy="18.0605" rx="2.00152" ry="2" fill="#2D2D2D"/>
<ellipse cx="22.4625" cy="22.0605" rx="2.00152" ry="2" fill="#2D2D2D"/>
<ellipse cx="26.4507" cy="22.0605" rx="2.00152" ry="2" fill="#2D2D2D"/>
<ellipse cx="22.4625" cy="30.0605" rx="2.00152" ry="2" fill="#2D2D2D"/>
<ellipse cx="26.4507" cy="30.0605" rx="2.00152" ry="2" fill="#2D2D2D"/>
<ellipse cx="10.4527" cy="2.06055" rx="2.00152" ry="2" fill="#2D2D2D"/>
<ellipse cx="10.4527" cy="6.06055" rx="2.00152" ry="2" fill="#2D2D2D"/>
<ellipse cx="10.4527" cy="10.0605" rx="2.00152" ry="2" fill="#2D2D2D"/>
<ellipse cx="10.4527" cy="14.0605" rx="2.00152" ry="2" fill="#2D2D2D"/>
<ellipse cx="14.4566" cy="14.0605" rx="2.00152" ry="2" fill="#2D2D2D"/>
<ellipse cx="10.4527" cy="18.0605" rx="2.00152" ry="2" fill="#2D2D2D"/>
<ellipse cx="10.4527" cy="22.0605" rx="2.00152" ry="2" fill="#2D2D2D"/>
<ellipse cx="10.4527" cy="30.0605" rx="2.00152" ry="2" fill="#2D2D2D"/>
<ellipse cx="6.45074" cy="6.06055" rx="2.00152" ry="2" fill="#2D2D2D"/>
<ellipse cx="2.00152" cy="2" rx="2.00152" ry="2" transform="matrix(1 0 0 -1 12.4551 28.0605)" fill="#2D2D2D"/>
<ellipse cx="2.00152" cy="2" rx="2.00152" ry="2" transform="matrix(1 0 0 -1 12.4551 36.0605)" fill="#2D2D2D"/>
<ellipse cx="2.00152" cy="2" rx="2.00152" ry="2" transform="matrix(1 0 0 -1 20.4609 28.0605)" fill="#2D2D2D"/>
<ellipse cx="2.00152" cy="2" rx="2.00152" ry="2" transform="matrix(1 0 0 -1 24.4492 28.0605)" fill="#2D2D2D"/>
<ellipse cx="2.00152" cy="2" rx="2.00152" ry="2" transform="matrix(1 0 0 -1 20.4609 36.0605)" fill="#2D2D2D"/>
<ellipse cx="2.00152" cy="2" rx="2.00152" ry="2" transform="matrix(1 0 0 -1 24.4492 36.0605)" fill="#2D2D2D"/>
<ellipse cx="18.4586" cy="2.06055" rx="2.00152" ry="2" fill="#2D2D2D"/>
<ellipse cx="18.4586" cy="6.06055" rx="2.00152" ry="2" fill="#2D2D2D"/>
<ellipse cx="18.4586" cy="10.0605" rx="2.00152" ry="2" fill="#2D2D2D"/>
<ellipse cx="18.4586" cy="14.0605" rx="2.00152" ry="2" fill="#2D2D2D"/>
<ellipse cx="18.4586" cy="18.0605" rx="2.00152" ry="2" fill="#2D2D2D"/>
<ellipse cx="18.4586" cy="22.0605" rx="2.00152" ry="2" fill="#2D2D2D"/>
<ellipse cx="18.4586" cy="30.0605" rx="2.00152" ry="2" fill="#2D2D2D"/>
<ellipse cx="2.00152" cy="2" rx="2.00152" ry="2" transform="matrix(1 0 0 -1 16.457 28.0605)" fill="#2D2D2D"/>
<ellipse cx="2.00152" cy="2" rx="2.00152" ry="2" transform="matrix(1 0 0 -1 16.457 36.0605)" fill="#2D2D2D"/>
<ellipse cx="2.00152" cy="2" rx="2.00152" ry="2" transform="matrix(1 0 0 -1 8.45117 28.0605)" fill="#2D2D2D"/>
<ellipse cx="2.00152" cy="2" rx="2.00152" ry="2" transform="matrix(1 0 0 -1 8.45117 36.0605)" fill="#2D2D2D"/>
<ellipse cx="6.45074" cy="10.0605" rx="2.00152" ry="2" fill="#2D2D2D"/>
<ellipse cx="6.45074" cy="14.0605" rx="2.00152" ry="2" fill="#2D2D2D"/>
<ellipse cx="6.45074" cy="18.0605" rx="2.00152" ry="2" fill="#2D2D2D"/>
<ellipse cx="6.45074" cy="22.0605" rx="2.00152" ry="2" fill="#2D2D2D"/>
<ellipse cx="6.45074" cy="30.0605" rx="2.00152" ry="2" fill="#2D2D2D"/>
<ellipse cx="6.45074" cy="26.0605" rx="2.00152" ry="2" fill="#2D2D2D"/>
<ellipse cx="2.44683" cy="22.0605" rx="2.00152" ry="2" fill="#2D2D2D"/>
<ellipse cx="2.44683" cy="26.0605" rx="2.00152" ry="2" fill="#2D2D2D"/>
<ellipse cx="2.44683" cy="10.0605" rx="2.00152" ry="2" fill="#2D2D2D"/>
<ellipse cx="2.44683" cy="14.0605" rx="2.00152" ry="2" fill="#2D2D2D"/>
<ellipse cx="2.44683" cy="18.0605" rx="2.00152" ry="2" fill="#2D2D2D"/>
</g>
<mask id="mask0_2143_58179" style="mask-type:alpha" maskUnits="userSpaceOnUse" x="8" y="9" width="20" height="19">
<rect x="8.44531" y="9" width="19" height="19" fill="#D9D9D9"/>
</mask>
<g mask="url(#mask0_2143_58179)">
<path d="M20.637 21.666L19.5286 20.5577L21.587 18.4993L19.5286 16.441L20.637 15.3327L22.6953 17.391L24.7536 15.3327L25.862 16.441L23.8036 18.4993L25.862 20.5577L24.7536 21.666L22.6953 19.6077L20.637 21.666ZM10.8203 20.8743V16.1243H13.987L17.9453 12.166V24.8327L13.987 20.8743H10.8203ZM16.362 16.0056L14.6599 17.7077H12.4036V19.291H14.6599L16.362 20.9931V16.0056Z" fill="#1C1B1F"/>
</g>
</svg>
