<svg width="37" height="37" viewBox="0 0 37 37" fill="none" xmlns="http://www.w3.org/2000/svg">
<g opacity="0.15">
<ellipse cx="34.4429" cy="10.0605" rx="2.00152" ry="2" fill="#2D2D2D"/>
<ellipse cx="34.4429" cy="14.0605" rx="2.00152" ry="2" fill="#2D2D2D"/>
<ellipse cx="34.4429" cy="18.0605" rx="2.00152" ry="2" fill="#2D2D2D"/>
<ellipse cx="30.441" cy="6.06055" rx="2.00152" ry="2" fill="#2D2D2D"/>
<ellipse cx="30.441" cy="10.0605" rx="2.00152" ry="2" fill="#2D2D2D"/>
<ellipse cx="30.441" cy="14.0605" rx="2.00152" ry="2" fill="#2D2D2D"/>
<ellipse cx="30.441" cy="18.0605" rx="2.00152" ry="2" fill="#2D2D2D"/>
<ellipse cx="30.441" cy="22.0605" rx="2.00152" ry="2" fill="#2D2D2D"/>
<ellipse cx="30.441" cy="30.0605" rx="2.00152" ry="2" fill="#2D2D2D"/>
<ellipse cx="30.441" cy="26.0605" rx="2.00152" ry="2" fill="#2D2D2D"/>
<ellipse cx="34.4429" cy="22.0605" rx="2.00152" ry="2" fill="#2D2D2D"/>
<ellipse cx="34.4429" cy="26.0605" rx="2.00152" ry="2" fill="#2D2D2D"/>
<ellipse cx="14.4566" cy="2.06055" rx="2.00152" ry="2" fill="#2D2D2D"/>
<ellipse cx="14.4566" cy="6.06055" rx="2.00152" ry="2" fill="#2D2D2D"/>
<ellipse cx="14.4566" cy="10.0605" rx="2.00152" ry="2" fill="#2D2D2D"/>
<ellipse cx="14.4566" cy="18.0605" rx="2.00152" ry="2" fill="#2D2D2D"/>
<ellipse cx="14.4566" cy="22.0605" rx="2.00152" ry="2" fill="#2D2D2D"/>
<ellipse cx="14.4566" cy="30.0605" rx="2.00152" ry="2" fill="#2D2D2D"/>
<ellipse cx="22.4625" cy="2.06055" rx="2.00152" ry="2" fill="#2D2D2D"/>
<ellipse cx="26.4507" cy="2.06055" rx="2.00152" ry="2" fill="#2D2D2D"/>
<ellipse cx="22.4625" cy="6.06055" rx="2.00152" ry="2" fill="#2D2D2D"/>
<ellipse cx="26.4507" cy="6.06055" rx="2.00152" ry="2" fill="#2D2D2D"/>
<ellipse cx="22.4625" cy="10.0605" rx="2.00152" ry="2" fill="#2D2D2D"/>
<ellipse cx="26.4507" cy="10.0605" rx="2.00152" ry="2" fill="#2D2D2D"/>
<ellipse cx="22.4625" cy="14.0605" rx="2.00152" ry="2" fill="#2D2D2D"/>
<ellipse cx="26.4507" cy="14.0605" rx="2.00152" ry="2" fill="#2D2D2D"/>
<ellipse cx="22.4625" cy="18.0605" rx="2.00152" ry="2" fill="#2D2D2D"/>
<ellipse cx="26.4507" cy="18.0605" rx="2.00152" ry="2" fill="#2D2D2D"/>
<ellipse cx="22.4625" cy="22.0605" rx="2.00152" ry="2" fill="#2D2D2D"/>
<ellipse cx="26.4507" cy="22.0605" rx="2.00152" ry="2" fill="#2D2D2D"/>
<ellipse cx="22.4625" cy="30.0605" rx="2.00152" ry="2" fill="#2D2D2D"/>
<ellipse cx="26.4507" cy="30.0605" rx="2.00152" ry="2" fill="#2D2D2D"/>
<ellipse cx="10.4527" cy="2.06055" rx="2.00152" ry="2" fill="#2D2D2D"/>
<ellipse cx="10.4527" cy="6.06055" rx="2.00152" ry="2" fill="#2D2D2D"/>
<ellipse cx="10.4527" cy="10.0605" rx="2.00152" ry="2" fill="#2D2D2D"/>
<ellipse cx="10.4527" cy="14.0605" rx="2.00152" ry="2" fill="#2D2D2D"/>
<ellipse cx="14.4566" cy="14.0605" rx="2.00152" ry="2" fill="#2D2D2D"/>
<ellipse cx="10.4527" cy="18.0605" rx="2.00152" ry="2" fill="#2D2D2D"/>
<ellipse cx="10.4527" cy="22.0605" rx="2.00152" ry="2" fill="#2D2D2D"/>
<ellipse cx="10.4527" cy="30.0605" rx="2.00152" ry="2" fill="#2D2D2D"/>
<ellipse cx="6.45074" cy="6.06055" rx="2.00152" ry="2" fill="#2D2D2D"/>
<ellipse cx="2.00152" cy="2" rx="2.00152" ry="2" transform="matrix(1 0 0 -1 12.4551 28.0605)" fill="#2D2D2D"/>
<ellipse cx="2.00152" cy="2" rx="2.00152" ry="2" transform="matrix(1 0 0 -1 12.4551 36.0605)" fill="#2D2D2D"/>
<ellipse cx="2.00152" cy="2" rx="2.00152" ry="2" transform="matrix(1 0 0 -1 20.4609 28.0605)" fill="#2D2D2D"/>
<ellipse cx="2.00152" cy="2" rx="2.00152" ry="2" transform="matrix(1 0 0 -1 24.4492 28.0605)" fill="#2D2D2D"/>
<ellipse cx="2.00152" cy="2" rx="2.00152" ry="2" transform="matrix(1 0 0 -1 20.4609 36.0605)" fill="#2D2D2D"/>
<ellipse cx="2.00152" cy="2" rx="2.00152" ry="2" transform="matrix(1 0 0 -1 24.4492 36.0605)" fill="#2D2D2D"/>
<ellipse cx="18.4586" cy="2.06055" rx="2.00152" ry="2" fill="#2D2D2D"/>
<ellipse cx="18.4586" cy="6.06055" rx="2.00152" ry="2" fill="#2D2D2D"/>
<ellipse cx="18.4586" cy="10.0605" rx="2.00152" ry="2" fill="#2D2D2D"/>
<ellipse cx="18.4586" cy="14.0605" rx="2.00152" ry="2" fill="#2D2D2D"/>
<ellipse cx="18.4586" cy="18.0605" rx="2.00152" ry="2" fill="#2D2D2D"/>
<ellipse cx="18.4586" cy="22.0605" rx="2.00152" ry="2" fill="#2D2D2D"/>
<ellipse cx="18.4586" cy="30.0605" rx="2.00152" ry="2" fill="#2D2D2D"/>
<ellipse cx="2.00152" cy="2" rx="2.00152" ry="2" transform="matrix(1 0 0 -1 16.457 28.0605)" fill="#2D2D2D"/>
<ellipse cx="2.00152" cy="2" rx="2.00152" ry="2" transform="matrix(1 0 0 -1 16.457 36.0605)" fill="#2D2D2D"/>
<ellipse cx="2.00152" cy="2" rx="2.00152" ry="2" transform="matrix(1 0 0 -1 8.45117 28.0605)" fill="#2D2D2D"/>
<ellipse cx="2.00152" cy="2" rx="2.00152" ry="2" transform="matrix(1 0 0 -1 8.45117 36.0605)" fill="#2D2D2D"/>
<ellipse cx="6.45074" cy="10.0605" rx="2.00152" ry="2" fill="#2D2D2D"/>
<ellipse cx="6.45074" cy="14.0605" rx="2.00152" ry="2" fill="#2D2D2D"/>
<ellipse cx="6.45074" cy="18.0605" rx="2.00152" ry="2" fill="#2D2D2D"/>
<ellipse cx="6.45074" cy="22.0605" rx="2.00152" ry="2" fill="#2D2D2D"/>
<ellipse cx="6.45074" cy="30.0605" rx="2.00152" ry="2" fill="#2D2D2D"/>
<ellipse cx="6.45074" cy="26.0605" rx="2.00152" ry="2" fill="#2D2D2D"/>
<ellipse cx="2.44683" cy="22.0605" rx="2.00152" ry="2" fill="#2D2D2D"/>
<ellipse cx="2.44683" cy="26.0605" rx="2.00152" ry="2" fill="#2D2D2D"/>
<ellipse cx="2.44683" cy="10.0605" rx="2.00152" ry="2" fill="#2D2D2D"/>
<ellipse cx="2.44683" cy="14.0605" rx="2.00152" ry="2" fill="#2D2D2D"/>
<ellipse cx="2.44683" cy="18.0605" rx="2.00152" ry="2" fill="#2D2D2D"/>
</g>
<mask id="mask0_2143_58179" style="mask-type:alpha" maskUnits="userSpaceOnUse" x="8" y="8" width="20" height="20">
<rect x="8.93945" y="8.56055" width="19.0144" height="19" fill="#D9D9D9"/>
</mask>
<g mask="url(#mask0_2143_58179)">
<path d="M20.0314 24.9694V23.3465C21.2198 23.0034 22.1771 22.3437 22.9033 21.3673C23.6296 20.3909 23.9927 19.2826 23.9927 18.0423C23.9927 16.802 23.6296 15.6937 22.9033 14.7173C22.1771 13.7409 21.2198 13.0812 20.0314 12.7382V11.1152C21.6687 11.4847 23.0024 12.3126 24.0323 13.5991C25.0623 14.8855 25.5772 16.3666 25.5772 18.0423C25.5772 19.718 25.0623 21.1991 24.0323 22.4855C23.0024 23.772 21.6687 24.6 20.0314 24.9694ZM11.3164 20.4371V15.6871H14.4855L18.4468 11.7288V24.3954L14.4855 20.4371H11.3164ZM20.0314 21.2288V14.8559C20.652 15.1461 21.1372 15.5816 21.4872 16.1621C21.8371 16.7427 22.012 17.376 22.012 18.0621C22.012 18.735 21.8371 19.3585 21.4872 19.9324C21.1372 20.5064 20.652 20.9385 20.0314 21.2288ZM16.8623 15.5684L15.1589 17.2704H12.9009V18.8538H15.1589L16.8623 20.5559V15.5684Z" fill="#1C1B1F"/>
</g>
</svg>
