<svg width="36" height="36" viewBox="0 0 36 36" fill="none" xmlns="http://www.w3.org/2000/svg">
<g opacity="0.1">
<circle cx="33.9727" cy="10" r="2" fill="#939393"/>
<circle cx="33.9727" cy="14" r="2" fill="#939393"/>
<circle cx="33.9727" cy="18" r="2" fill="#939393"/>
<circle cx="29.9727" cy="6" r="2" fill="#939393"/>
<circle cx="29.9727" cy="10" r="2" fill="#939393"/>
<circle cx="29.9727" cy="14" r="2" fill="#939393"/>
<circle cx="29.9727" cy="18" r="2" fill="#939393"/>
<circle cx="29.9727" cy="22" r="2" fill="#939393"/>
<circle cx="29.9727" cy="30" r="2" fill="#939393"/>
<circle cx="29.9727" cy="26" r="2" fill="#939393"/>
<circle cx="33.9727" cy="22" r="2" fill="#939393"/>
<circle cx="33.9727" cy="26" r="2" fill="#939393"/>
<circle cx="14" cy="2" r="2" fill="#939393"/>
<circle cx="14" cy="6" r="2" fill="#939393"/>
<circle cx="14" cy="10" r="2" fill="#939393"/>
<circle cx="14" cy="18" r="2" fill="#939393"/>
<circle cx="14" cy="22" r="2" fill="#939393"/>
<circle cx="14" cy="30" r="2" fill="#939393"/>
<circle cx="22" cy="2" r="2" fill="#939393"/>
<circle cx="25.9863" cy="2" r="2" fill="#939393"/>
<circle cx="22" cy="6" r="2" fill="#939393"/>
<circle cx="25.9863" cy="6" r="2" fill="#939393"/>
<circle cx="22" cy="10" r="2" fill="#939393"/>
<circle cx="25.9863" cy="10" r="2" fill="#939393"/>
<circle cx="22" cy="14" r="2" fill="#939393"/>
<circle cx="25.9863" cy="14" r="2" fill="#939393"/>
<circle cx="22" cy="18" r="2" fill="#939393"/>
<circle cx="25.9863" cy="18" r="2" fill="#939393"/>
<circle cx="22" cy="22" r="2" fill="#939393"/>
<circle cx="25.9863" cy="22" r="2" fill="#939393"/>
<circle cx="22" cy="30" r="2" fill="#939393"/>
<circle cx="25.9863" cy="30" r="2" fill="#939393"/>
<circle cx="10" cy="2" r="2" fill="#939393"/>
<circle cx="10" cy="6" r="2" fill="#939393"/>
<circle cx="10" cy="10" r="2" fill="#939393"/>
<circle cx="10" cy="14" r="2" fill="#939393"/>
<circle cx="14" cy="14" r="2" fill="#939393"/>
<circle cx="10" cy="18" r="2" fill="#939393"/>
<circle cx="10" cy="22" r="2" fill="#939393"/>
<circle cx="10" cy="30" r="2" fill="#939393"/>
<circle cx="6" cy="6" r="2" fill="#939393"/>
<circle cx="2" cy="2" r="2" transform="matrix(1 0 0 -1 12 28)" fill="#939393"/>
<circle cx="2" cy="2" r="2" transform="matrix(1 0 0 -1 12 36)" fill="#939393"/>
<circle cx="2" cy="2" r="2" transform="matrix(1 0 0 -1 20 28)" fill="#939393"/>
<circle cx="2" cy="2" r="2" transform="matrix(1 0 0 -1 23.9863 28)" fill="#939393"/>
<circle cx="2" cy="2" r="2" transform="matrix(1 0 0 -1 20 36)" fill="#939393"/>
<circle cx="2" cy="2" r="2" transform="matrix(1 0 0 -1 23.9863 36)" fill="#939393"/>
<circle cx="18" cy="2" r="2" fill="#939393"/>
<circle cx="18" cy="6" r="2" fill="#939393"/>
<circle cx="18" cy="10" r="2" fill="#939393"/>
<circle cx="18" cy="14" r="2" fill="#939393"/>
<circle cx="18" cy="18" r="2" fill="#939393"/>
<circle cx="18" cy="22" r="2" fill="#939393"/>
<circle cx="18" cy="30" r="2" fill="#939393"/>
<circle cx="2" cy="2" r="2" transform="matrix(1 0 0 -1 16 28)" fill="#939393"/>
<circle cx="2" cy="2" r="2" transform="matrix(1 0 0 -1 16 36)" fill="#939393"/>
<circle cx="2" cy="2" r="2" transform="matrix(1 0 0 -1 8 28)" fill="#939393"/>
<circle cx="2" cy="2" r="2" transform="matrix(1 0 0 -1 8 36)" fill="#939393"/>
<circle cx="6" cy="10" r="2" fill="#939393"/>
<circle cx="6" cy="14" r="2" fill="#939393"/>
<circle cx="6" cy="18" r="2" fill="#939393"/>
<circle cx="6" cy="22" r="2" fill="#939393"/>
<circle cx="6" cy="30" r="2" fill="#939393"/>
<circle cx="6" cy="26" r="2" fill="#939393"/>
<circle cx="2" cy="22" r="2" fill="#939393"/>
<circle cx="2" cy="26" r="2" fill="#939393"/>
<circle cx="2" cy="10" r="2" fill="#939393"/>
<circle cx="2" cy="14" r="2" fill="#939393"/>
<circle cx="2" cy="18" r="2" fill="#939393"/>
</g>
<mask id="mask0_1622_40849" style="mask-type:alpha" maskUnits="userSpaceOnUse" x="10" y="9" width="16" height="17">
<rect x="10" y="9.99219" width="16" height="16" fill="#D9D9D9"/>
</mask>
<g mask="url(#mask0_1622_40849)">
<path d="M17.9987 24.6576C17.0876 24.6576 16.2265 24.4826 15.4154 24.1326C14.6043 23.7826 13.8959 23.3048 13.2904 22.6992C12.6848 22.0937 12.207 21.3853 11.857 20.5742C11.507 19.7631 11.332 18.902 11.332 17.9909C11.332 17.0687 11.507 16.2048 11.857 15.3992C12.207 14.5937 12.6848 13.8881 13.2904 13.2826C13.8959 12.677 14.6043 12.1992 15.4154 11.8492C16.2265 11.4992 17.0876 11.3242 17.9987 11.3242C18.9209 11.3242 19.7848 11.4992 20.5904 11.8492C21.3959 12.1992 22.1015 12.677 22.707 13.2826C23.3126 13.8881 23.7904 14.5937 24.1404 15.3992C24.4904 16.2048 24.6654 17.0687 24.6654 17.9909C24.6654 18.902 24.4904 19.7631 24.1404 20.5742C23.7904 21.3853 23.3126 22.0937 22.707 22.6992C22.1015 23.3048 21.3959 23.7826 20.5904 24.1326C19.7848 24.4826 18.9209 24.6576 17.9987 24.6576ZM17.9987 23.2909C18.2876 22.8909 18.5376 22.4742 18.7487 22.0409C18.9598 21.6076 19.132 21.1464 19.2654 20.6576H16.732C16.8654 21.1464 17.0376 21.6076 17.2487 22.0409C17.4598 22.4742 17.7098 22.8909 17.9987 23.2909ZM16.2654 23.0242C16.0654 22.6576 15.8904 22.277 15.7404 21.8826C15.5904 21.4881 15.4654 21.0798 15.3654 20.6576H13.3987C13.7209 21.2131 14.1237 21.6964 14.607 22.1076C15.0904 22.5187 15.6431 22.8242 16.2654 23.0242ZM19.732 23.0242C20.3543 22.8242 20.907 22.5187 21.3904 22.1076C21.8737 21.6964 22.2765 21.2131 22.5987 20.6576H20.632C20.532 21.0798 20.407 21.4881 20.257 21.8826C20.107 22.277 19.932 22.6576 19.732 23.0242ZM12.832 19.3242H15.0987C15.0654 19.102 15.0404 18.8826 15.0237 18.6659C15.007 18.4492 14.9987 18.2242 14.9987 17.9909C14.9987 17.7576 15.007 17.5326 15.0237 17.3159C15.0404 17.0992 15.0654 16.8798 15.0987 16.6576H12.832C12.7765 16.8798 12.7348 17.0992 12.707 17.3159C12.6793 17.5326 12.6654 17.7576 12.6654 17.9909C12.6654 18.2242 12.6793 18.4492 12.707 18.6659C12.7348 18.8826 12.7765 19.102 12.832 19.3242ZM16.432 19.3242H19.5654C19.5987 19.102 19.6237 18.8826 19.6404 18.6659C19.657 18.4492 19.6654 18.2242 19.6654 17.9909C19.6654 17.7576 19.657 17.5326 19.6404 17.3159C19.6237 17.0992 19.5987 16.8798 19.5654 16.6576H16.432C16.3987 16.8798 16.3737 17.0992 16.357 17.3159C16.3404 17.5326 16.332 17.7576 16.332 17.9909C16.332 18.2242 16.3404 18.4492 16.357 18.6659C16.3737 18.8826 16.3987 19.102 16.432 19.3242ZM20.8987 19.3242H23.1654C23.2209 19.102 23.2626 18.8826 23.2904 18.6659C23.3181 18.4492 23.332 18.2242 23.332 17.9909C23.332 17.7576 23.3181 17.5326 23.2904 17.3159C23.2626 17.0992 23.2209 16.8798 23.1654 16.6576H20.8987C20.932 16.8798 20.957 17.0992 20.9737 17.3159C20.9904 17.5326 20.9987 17.7576 20.9987 17.9909C20.9987 18.2242 20.9904 18.4492 20.9737 18.6659C20.957 18.8826 20.932 19.102 20.8987 19.3242ZM20.632 15.3242H22.5987C22.2765 14.7687 21.8737 14.2853 21.3904 13.8742C20.907 13.4631 20.3543 13.1576 19.732 12.9576C19.932 13.3242 20.107 13.7048 20.257 14.0992C20.407 14.4937 20.532 14.902 20.632 15.3242ZM16.732 15.3242H19.2654C19.132 14.8353 18.9598 14.3742 18.7487 13.9409C18.5376 13.5076 18.2876 13.0909 17.9987 12.6909C17.7098 13.0909 17.4598 13.5076 17.2487 13.9409C17.0376 14.3742 16.8654 14.8353 16.732 15.3242ZM13.3987 15.3242H15.3654C15.4654 14.902 15.5904 14.4937 15.7404 14.0992C15.8904 13.7048 16.0654 13.3242 16.2654 12.9576C15.6431 13.1576 15.0904 13.4631 14.607 13.8742C14.1237 14.2853 13.7209 14.7687 13.3987 15.3242Z" fill="#2D2D2D"/>
</g>
</svg>
