<svg width="93" height="37" viewBox="0 0 93 37" fill="none" xmlns="http://www.w3.org/2000/svg">
<g opacity="0.15">
<circle cx="46.4727" cy="2.02734" r="2" fill="#2D2D2D"/>
<circle cx="46.4727" cy="6.02734" r="2" fill="#2D2D2D"/>
<circle cx="46.4727" cy="10.0273" r="2" fill="#2D2D2D"/>
<circle cx="90.4453" cy="10.0273" r="2" fill="#2D2D2D"/>
<circle cx="46.4727" cy="14.0273" r="2" fill="#2D2D2D"/>
<circle cx="90.4453" cy="14.0273" r="2" fill="#2D2D2D"/>
<circle cx="46.4727" cy="18.0273" r="2" fill="#2D2D2D"/>
<circle cx="90.4453" cy="18.0273" r="2" fill="#2D2D2D"/>
<circle cx="46.4727" cy="22.0273" r="2" fill="#2D2D2D"/>
<circle cx="46.4727" cy="30.0273" r="2" fill="#2D2D2D"/>
<circle cx="30.4727" cy="2.02734" r="2" fill="#2D2D2D"/>
<circle cx="30.4727" cy="6.02734" r="2" fill="#2D2D2D"/>
<circle cx="30.4727" cy="10.0273" r="2" fill="#2D2D2D"/>
<circle cx="30.4727" cy="14.0273" r="2" fill="#2D2D2D"/>
<circle cx="30.4727" cy="18.0273" r="2" fill="#2D2D2D"/>
<circle cx="30.4727" cy="22.0273" r="2" fill="#2D2D2D"/>
<circle cx="30.4727" cy="30.0273" r="2" fill="#2D2D2D"/>
<circle cx="62.4727" cy="2.02734" r="2" fill="#2D2D2D"/>
<circle cx="62.4727" cy="6.02734" r="2" fill="#2D2D2D"/>
<circle cx="62.4727" cy="10.0273" r="2" fill="#2D2D2D"/>
<circle cx="62.4727" cy="14.0273" r="2" fill="#2D2D2D"/>
<circle cx="62.4727" cy="18.0273" r="2" fill="#2D2D2D"/>
<circle cx="62.4727" cy="22.0273" r="2" fill="#2D2D2D"/>
<circle cx="62.4727" cy="30.0273" r="2" fill="#2D2D2D"/>
<circle cx="42.4727" cy="2.02734" r="2" fill="#2D2D2D"/>
<circle cx="42.4727" cy="6.02734" r="2" fill="#2D2D2D"/>
<circle cx="86.4453" cy="6.02734" r="2" fill="#2D2D2D"/>
<circle cx="42.4727" cy="10.0273" r="2" fill="#2D2D2D"/>
<circle cx="86.4453" cy="10.0273" r="2" fill="#2D2D2D"/>
<circle cx="42.4727" cy="14.0273" r="2" fill="#2D2D2D"/>
<circle cx="86.4453" cy="14.0273" r="2" fill="#2D2D2D"/>
<circle cx="42.4727" cy="18.0273" r="2" fill="#2D2D2D"/>
<circle cx="86.4453" cy="18.0273" r="2" fill="#2D2D2D"/>
<circle cx="42.4727" cy="22.0273" r="2" fill="#2D2D2D"/>
<circle cx="42.4727" cy="30.0273" r="2" fill="#2D2D2D"/>
<circle cx="86.4453" cy="22.0273" r="2" fill="#2D2D2D"/>
<circle cx="86.4453" cy="30.0273" r="2" fill="#2D2D2D"/>
<circle cx="86.4453" cy="26.0273" r="2" fill="#2D2D2D"/>
<circle cx="90.4453" cy="22.0273" r="2" fill="#2D2D2D"/>
<circle cx="90.4453" cy="26.0273" r="2" fill="#2D2D2D"/>
<circle cx="26.4727" cy="2.02734" r="2" fill="#2D2D2D"/>
<circle cx="26.4727" cy="6.02734" r="2" fill="#2D2D2D"/>
<circle cx="26.4727" cy="10.0273" r="2" fill="#2D2D2D"/>
<circle cx="26.4727" cy="30.0273" r="2" fill="#2D2D2D"/>
<circle cx="58.4727" cy="2.02734" r="2" fill="#2D2D2D"/>
<circle cx="58.4727" cy="6.02734" r="2" fill="#2D2D2D"/>
<circle cx="58.4727" cy="10.0273" r="2" fill="#2D2D2D"/>
<circle cx="58.4727" cy="14.0273" r="2" fill="#2D2D2D"/>
<circle cx="58.4727" cy="18.0273" r="2" fill="#2D2D2D"/>
<circle cx="58.4727" cy="22.0273" r="2" fill="#2D2D2D"/>
<circle cx="58.4727" cy="30.0273" r="2" fill="#2D2D2D"/>
<circle cx="38.4727" cy="2.02734" r="2" fill="#2D2D2D"/>
<circle cx="38.4727" cy="6.02734" r="2" fill="#2D2D2D"/>
<circle cx="38.4727" cy="10.0273" r="2" fill="#2D2D2D"/>
<circle cx="38.4727" cy="14.0273" r="2" fill="#2D2D2D"/>
<circle cx="38.4727" cy="18.0273" r="2" fill="#2D2D2D"/>
<circle cx="38.4727" cy="22.0273" r="2" fill="#2D2D2D"/>
<circle cx="38.4727" cy="30.0273" r="2" fill="#2D2D2D"/>
<circle cx="22.4727" cy="2.02734" r="2" fill="#2D2D2D"/>
<circle cx="70.4727" cy="2.02734" r="2" fill="#2D2D2D"/>
<circle cx="22.4727" cy="6.02734" r="2" fill="#2D2D2D"/>
<circle cx="70.4727" cy="6.02734" r="2" fill="#2D2D2D"/>
<circle cx="70.4727" cy="10.0273" r="2" fill="#2D2D2D"/>
<circle cx="70.4727" cy="14.0273" r="2" fill="#2D2D2D"/>
<circle cx="70.4727" cy="18.0273" r="2" fill="#2D2D2D"/>
<circle cx="22.4727" cy="30.0273" r="2" fill="#2D2D2D"/>
<circle cx="70.4727" cy="22.0273" r="2" fill="#2D2D2D"/>
<circle cx="70.4727" cy="30.0273" r="2" fill="#2D2D2D"/>
<circle cx="54.4727" cy="2.02734" r="2" fill="#2D2D2D"/>
<circle cx="54.4727" cy="6.02734" r="2" fill="#2D2D2D"/>
<circle cx="54.4727" cy="10.0273" r="2" fill="#2D2D2D"/>
<circle cx="54.4727" cy="14.0273" r="2" fill="#2D2D2D"/>
<circle cx="54.4727" cy="18.0273" r="2" fill="#2D2D2D"/>
<circle cx="54.4727" cy="22.0273" r="2" fill="#2D2D2D"/>
<circle cx="54.4727" cy="30.0273" r="2" fill="#2D2D2D"/>
<circle cx="14.4727" cy="2.02734" r="2" fill="#2D2D2D"/>
<circle cx="14.4727" cy="6.02734" r="2" fill="#2D2D2D"/>
<circle cx="14.4727" cy="30.0273" r="2" fill="#2D2D2D"/>
<circle cx="34.4727" cy="2.02734" r="2" fill="#2D2D2D"/>
<circle cx="78.4727" cy="2.02734" r="2" fill="#2D2D2D"/>
<circle cx="82.459" cy="2.02734" r="2" fill="#2D2D2D"/>
<circle cx="34.4727" cy="6.02734" r="2" fill="#2D2D2D"/>
<circle cx="78.4727" cy="6.02734" r="2" fill="#2D2D2D"/>
<circle cx="82.459" cy="6.02734" r="2" fill="#2D2D2D"/>
<circle cx="34.4727" cy="10.0273" r="2" fill="#2D2D2D"/>
<circle cx="78.4727" cy="10.0273" r="2" fill="#2D2D2D"/>
<circle cx="82.459" cy="10.0273" r="2" fill="#2D2D2D"/>
<circle cx="34.4727" cy="14.0273" r="2" fill="#2D2D2D"/>
<circle cx="78.4727" cy="14.0273" r="2" fill="#2D2D2D"/>
<circle cx="82.459" cy="14.0273" r="2" fill="#2D2D2D"/>
<circle cx="34.4727" cy="18.0273" r="2" fill="#2D2D2D"/>
<circle cx="78.4727" cy="18.0273" r="2" fill="#2D2D2D"/>
<circle cx="82.459" cy="18.0273" r="2" fill="#2D2D2D"/>
<circle cx="34.4727" cy="22.0273" r="2" fill="#2D2D2D"/>
<circle cx="34.4727" cy="30.0273" r="2" fill="#2D2D2D"/>
<circle cx="78.4727" cy="22.0273" r="2" fill="#2D2D2D"/>
<circle cx="82.459" cy="22.0273" r="2" fill="#2D2D2D"/>
<circle cx="78.4727" cy="30.0273" r="2" fill="#2D2D2D"/>
<circle cx="82.459" cy="30.0273" r="2" fill="#2D2D2D"/>
<circle cx="18.4727" cy="2.02734" r="2" fill="#2D2D2D"/>
<circle cx="66.4727" cy="2.02734" r="2" fill="#2D2D2D"/>
<circle cx="18.4727" cy="6.02734" r="2" fill="#2D2D2D"/>
<circle cx="66.4727" cy="6.02734" r="2" fill="#2D2D2D"/>
<circle cx="66.4727" cy="10.0273" r="2" fill="#2D2D2D"/>
<circle cx="66.4727" cy="14.0273" r="2" fill="#2D2D2D"/>
<circle cx="66.4727" cy="18.0273" r="2" fill="#2D2D2D"/>
<circle cx="18.4727" cy="30.0273" r="2" fill="#2D2D2D"/>
<circle cx="66.4727" cy="22.0273" r="2" fill="#2D2D2D"/>
<circle cx="66.4727" cy="30.0273" r="2" fill="#2D2D2D"/>
<circle cx="50.4727" cy="2.02734" r="2" fill="#2D2D2D"/>
<circle cx="50.4727" cy="6.02734" r="2" fill="#2D2D2D"/>
<circle cx="50.4727" cy="10.0273" r="2" fill="#2D2D2D"/>
<circle cx="50.4727" cy="14.0273" r="2" fill="#2D2D2D"/>
<circle cx="50.4727" cy="18.0273" r="2" fill="#2D2D2D"/>
<circle cx="50.4727" cy="22.0273" r="2" fill="#2D2D2D"/>
<circle cx="50.4727" cy="30.0273" r="2" fill="#2D2D2D"/>
<circle cx="10.4727" cy="2.02734" r="2" fill="#2D2D2D"/>
<circle cx="10.4727" cy="6.02734" r="2" fill="#2D2D2D"/>
<circle cx="10.4727" cy="10.0273" r="2" fill="#2D2D2D"/>
<circle cx="10.4727" cy="30.0273" r="2" fill="#2D2D2D"/>
<circle cx="6.47266" cy="6.02734" r="2" fill="#2D2D2D"/>
<circle cx="2" cy="2" r="2" transform="matrix(1 0 0 -1 44.4727 28.0273)" fill="#2D2D2D"/>
<circle cx="2" cy="2" r="2" transform="matrix(1 0 0 -1 44.4727 36.0273)" fill="#2D2D2D"/>
<circle cx="2" cy="2" r="2" transform="matrix(1 0 0 -1 28.4727 28.0273)" fill="#2D2D2D"/>
<circle cx="2" cy="2" r="2" transform="matrix(1 0 0 -1 28.4727 36.0273)" fill="#2D2D2D"/>
<circle cx="2" cy="2" r="2" transform="matrix(1 0 0 -1 60.4727 28.0273)" fill="#2D2D2D"/>
<circle cx="2" cy="2" r="2" transform="matrix(1 0 0 -1 60.4727 36.0273)" fill="#2D2D2D"/>
<circle cx="2" cy="2" r="2" transform="matrix(1 0 0 -1 40.4727 28.0273)" fill="#2D2D2D"/>
<circle cx="2" cy="2" r="2" transform="matrix(1 0 0 -1 40.4727 36.0273)" fill="#2D2D2D"/>
<circle cx="2" cy="2" r="2" transform="matrix(1 0 0 -1 24.4727 28.0273)" fill="#2D2D2D"/>
<circle cx="2" cy="2" r="2" transform="matrix(1 0 0 -1 24.4727 36.0273)" fill="#2D2D2D"/>
<circle cx="2" cy="2" r="2" transform="matrix(1 0 0 -1 56.4727 28.0273)" fill="#2D2D2D"/>
<circle cx="2" cy="2" r="2" transform="matrix(1 0 0 -1 56.4727 36.0273)" fill="#2D2D2D"/>
<circle cx="2" cy="2" r="2" transform="matrix(1 0 0 -1 36.4727 28.0273)" fill="#2D2D2D"/>
<circle cx="2" cy="2" r="2" transform="matrix(1 0 0 -1 36.4727 36.0273)" fill="#2D2D2D"/>
<circle cx="2" cy="2" r="2" transform="matrix(1 0 0 -1 20.4727 36.0273)" fill="#2D2D2D"/>
<circle cx="2" cy="2" r="2" transform="matrix(1 0 0 -1 68.4727 28.0273)" fill="#2D2D2D"/>
<circle cx="2" cy="2" r="2" transform="matrix(1 0 0 -1 68.4727 36.0273)" fill="#2D2D2D"/>
<circle cx="2" cy="2" r="2" transform="matrix(1 0 0 -1 52.4727 28.0273)" fill="#2D2D2D"/>
<circle cx="2" cy="2" r="2" transform="matrix(1 0 0 -1 52.4727 36.0273)" fill="#2D2D2D"/>
<circle cx="2" cy="2" r="2" transform="matrix(1 0 0 -1 12.4727 36.0273)" fill="#2D2D2D"/>
<circle cx="2" cy="2" r="2" transform="matrix(1 0 0 -1 32.4727 28.0273)" fill="#2D2D2D"/>
<circle cx="2" cy="2" r="2" transform="matrix(1 0 0 -1 32.4727 36.0273)" fill="#2D2D2D"/>
<circle cx="2" cy="2" r="2" transform="matrix(1 0 0 -1 76.4727 28.0273)" fill="#2D2D2D"/>
<circle cx="2" cy="2" r="2" transform="matrix(1 0 0 -1 80.459 28.0273)" fill="#2D2D2D"/>
<circle cx="2" cy="2" r="2" transform="matrix(1 0 0 -1 76.4727 36.0273)" fill="#2D2D2D"/>
<circle cx="2" cy="2" r="2" transform="matrix(1 0 0 -1 80.459 36.0273)" fill="#2D2D2D"/>
<circle cx="2" cy="2" r="2" transform="matrix(1 0 0 -1 16.4727 36.0273)" fill="#2D2D2D"/>
<circle cx="2" cy="2" r="2" transform="matrix(1 0 0 -1 64.4727 28.0273)" fill="#2D2D2D"/>
<circle cx="2" cy="2" r="2" transform="matrix(1 0 0 -1 64.4727 36.0273)" fill="#2D2D2D"/>
<circle cx="74.4727" cy="2.02734" r="2" fill="#2D2D2D"/>
<circle cx="74.4727" cy="6.02734" r="2" fill="#2D2D2D"/>
<circle cx="74.4727" cy="10.0273" r="2" fill="#2D2D2D"/>
<circle cx="74.4727" cy="14.0273" r="2" fill="#2D2D2D"/>
<circle cx="74.4727" cy="18.0273" r="2" fill="#2D2D2D"/>
<circle cx="74.4727" cy="22.0273" r="2" fill="#2D2D2D"/>
<circle cx="74.4727" cy="30.0273" r="2" fill="#2D2D2D"/>
<circle cx="2" cy="2" r="2" transform="matrix(1 0 0 -1 72.4727 28.0273)" fill="#2D2D2D"/>
<circle cx="2" cy="2" r="2" transform="matrix(1 0 0 -1 72.4727 36.0273)" fill="#2D2D2D"/>
<circle cx="2" cy="2" r="2" transform="matrix(1 0 0 -1 48.4727 28.0273)" fill="#2D2D2D"/>
<circle cx="2" cy="2" r="2" transform="matrix(1 0 0 -1 48.4727 36.0273)" fill="#2D2D2D"/>
<circle cx="2" cy="2" r="2" transform="matrix(1 0 0 -1 8.47266 28.0273)" fill="#2D2D2D"/>
<circle cx="2" cy="2" r="2" transform="matrix(1 0 0 -1 8.47266 36.0273)" fill="#2D2D2D"/>
<circle cx="6.47266" cy="10.0273" r="2" fill="#2D2D2D"/>
<circle cx="6.47266" cy="14.0273" r="2" fill="#2D2D2D"/>
<circle cx="6.47266" cy="18.0273" r="2" fill="#2D2D2D"/>
<circle cx="6.47266" cy="22.0273" r="2" fill="#2D2D2D"/>
<circle cx="6.47266" cy="30.0273" r="2" fill="#2D2D2D"/>
<circle cx="6.47266" cy="26.0273" r="2" fill="#2D2D2D"/>
<circle cx="2.47266" cy="22.0273" r="2" fill="#2D2D2D"/>
<circle cx="2.47266" cy="26.0273" r="2" fill="#2D2D2D"/>
<circle cx="2.47266" cy="10.0273" r="2" fill="#2D2D2D"/>
<circle cx="2.47266" cy="14.0273" r="2" fill="#2D2D2D"/>
<circle cx="2.47266" cy="18.0273" r="2" fill="#2D2D2D"/>
<circle cx="14.4727" cy="10.0273" r="2" fill="#2D2D2D"/>
<circle cx="10.4727" cy="14.0273" r="2" fill="#2D2D2D"/>
<circle cx="26.4727" cy="14.0273" r="2" fill="#2D2D2D"/>
<circle cx="22.4727" cy="10.0273" r="2" fill="#2D2D2D"/>
<circle cx="26.4727" cy="22.0273" r="2" fill="#2D2D2D"/>
<circle cx="10.4727" cy="22.0273" r="2" fill="#2D2D2D"/>
<circle cx="2" cy="2" r="2" transform="matrix(1 0 0 -1 20.4727 28.0273)" fill="#2D2D2D"/>
<circle cx="2" cy="2" r="2" transform="matrix(1 0 0 -1 12.4727 28.0273)" fill="#2D2D2D"/>
<circle cx="22.4727" cy="18.0273" r="2" fill="#2D2D2D"/>
<circle cx="14.4727" cy="18.0273" r="2" fill="#2D2D2D"/>
<circle cx="18.4727" cy="22.0273" r="2" fill="#2D2D2D"/>
<circle cx="18.4727" cy="14.0273" r="2" fill="#2D2D2D"/>
</g>
<circle cx="22.4727" cy="14.0273" r="2" fill="#2D2D2D"/>
<circle cx="22.4727" cy="22.0273" r="2" fill="#2D2D2D"/>
<circle cx="26.4727" cy="18.0273" r="2" fill="#2D2D2D"/>
<circle cx="10.4727" cy="18.0273" r="2" fill="#2D2D2D"/>
<circle cx="14.4727" cy="22.0273" r="2" fill="#2D2D2D"/>
<circle cx="18.4727" cy="10.0273" r="2" fill="#2D2D2D"/>
<circle cx="18.4727" cy="18.0273" r="2" fill="#2D2D2D"/>
<circle cx="14.4727" cy="14.0273" r="2" fill="#2D2D2D"/>
<circle cx="2" cy="2" r="2" transform="matrix(1 0 0 -1 16.4727 28.0273)" fill="#2D2D2D"/>
</svg>
