<svg width="36" height="37" viewBox="0 0 36 37" fill="none" xmlns="http://www.w3.org/2000/svg">
<g opacity="0.1">
<circle cx="33.9727" cy="10.0078" r="2" fill="#EDEBE9"/>
<circle cx="33.9727" cy="14.0078" r="2" fill="#EDEBE9"/>
<circle cx="33.9727" cy="18.0078" r="2" fill="#EDEBE9"/>
<circle cx="29.9727" cy="6.00781" r="2" fill="#EDEBE9"/>
<circle cx="29.9727" cy="10.0078" r="2" fill="#EDEBE9"/>
<circle cx="29.9727" cy="14.0078" r="2" fill="#EDEBE9"/>
<circle cx="29.9727" cy="18.0078" r="2" fill="#EDEBE9"/>
<circle cx="29.9727" cy="22.0078" r="2" fill="#EDEBE9"/>
<circle cx="29.9727" cy="30.0078" r="2" fill="#EDEBE9"/>
<circle cx="29.9727" cy="26.0078" r="2" fill="#EDEBE9"/>
<circle cx="33.9727" cy="22.0078" r="2" fill="#EDEBE9"/>
<circle cx="33.9727" cy="26.0078" r="2" fill="#EDEBE9"/>
<circle cx="14" cy="2.00781" r="2" fill="#EDEBE9"/>
<circle cx="14" cy="6.00781" r="2" fill="#EDEBE9"/>
<circle cx="14" cy="10.0078" r="2" fill="#EDEBE9"/>
<circle cx="14" cy="18.0078" r="2" fill="#EDEBE9"/>
<circle cx="14" cy="22.0078" r="2" fill="#EDEBE9"/>
<circle cx="14" cy="30.0078" r="2" fill="#EDEBE9"/>
<circle cx="22" cy="2.00781" r="2" fill="#EDEBE9"/>
<circle cx="25.9863" cy="2.00781" r="2" fill="#EDEBE9"/>
<circle cx="22" cy="6.00781" r="2" fill="#EDEBE9"/>
<circle cx="25.9863" cy="6.00781" r="2" fill="#EDEBE9"/>
<circle cx="22" cy="10.0078" r="2" fill="#EDEBE9"/>
<circle cx="25.9863" cy="10.0078" r="2" fill="#EDEBE9"/>
<circle cx="22" cy="14.0078" r="2" fill="#EDEBE9"/>
<circle cx="25.9863" cy="14.0078" r="2" fill="#EDEBE9"/>
<circle cx="22" cy="18.0078" r="2" fill="#EDEBE9"/>
<circle cx="25.9863" cy="18.0078" r="2" fill="#EDEBE9"/>
<circle cx="22" cy="22.0078" r="2" fill="#EDEBE9"/>
<circle cx="25.9863" cy="22.0078" r="2" fill="#EDEBE9"/>
<circle cx="22" cy="30.0078" r="2" fill="#EDEBE9"/>
<circle cx="25.9863" cy="30.0078" r="2" fill="#EDEBE9"/>
<circle cx="10" cy="2.00781" r="2" fill="#EDEBE9"/>
<circle cx="10" cy="6.00781" r="2" fill="#EDEBE9"/>
<circle cx="10" cy="10.0078" r="2" fill="#EDEBE9"/>
<circle cx="10" cy="14.0078" r="2" fill="#EDEBE9"/>
<circle cx="14" cy="14.0078" r="2" fill="#EDEBE9"/>
<circle cx="10" cy="18.0078" r="2" fill="#EDEBE9"/>
<circle cx="10" cy="22.0078" r="2" fill="#EDEBE9"/>
<circle cx="10" cy="30.0078" r="2" fill="#EDEBE9"/>
<circle cx="6" cy="6.00781" r="2" fill="#EDEBE9"/>
<circle cx="2" cy="2" r="2" transform="matrix(1 0 0 -1 12 28.0078)" fill="#EDEBE9"/>
<circle cx="2" cy="2" r="2" transform="matrix(1 0 0 -1 12 36.0078)" fill="#EDEBE9"/>
<circle cx="2" cy="2" r="2" transform="matrix(1 0 0 -1 20 28.0078)" fill="#EDEBE9"/>
<circle cx="2" cy="2" r="2" transform="matrix(1 0 0 -1 23.9863 28.0078)" fill="#EDEBE9"/>
<circle cx="2" cy="2" r="2" transform="matrix(1 0 0 -1 20 36.0078)" fill="#EDEBE9"/>
<circle cx="2" cy="2" r="2" transform="matrix(1 0 0 -1 23.9863 36.0078)" fill="#EDEBE9"/>
<circle cx="18" cy="2.00781" r="2" fill="#EDEBE9"/>
<circle cx="18" cy="6.00781" r="2" fill="#EDEBE9"/>
<circle cx="18" cy="10.0078" r="2" fill="#EDEBE9"/>
<circle cx="18" cy="14.0078" r="2" fill="#EDEBE9"/>
<circle cx="18" cy="18.0078" r="2" fill="#EDEBE9"/>
<circle cx="18" cy="22.0078" r="2" fill="#EDEBE9"/>
<circle cx="18" cy="30.0078" r="2" fill="#EDEBE9"/>
<circle cx="2" cy="2" r="2" transform="matrix(1 0 0 -1 16 28.0078)" fill="#EDEBE9"/>
<circle cx="2" cy="2" r="2" transform="matrix(1 0 0 -1 16 36.0078)" fill="#EDEBE9"/>
<circle cx="2" cy="2" r="2" transform="matrix(1 0 0 -1 8 28.0078)" fill="#EDEBE9"/>
<circle cx="2" cy="2" r="2" transform="matrix(1 0 0 -1 8 36.0078)" fill="#EDEBE9"/>
<circle cx="6" cy="10.0078" r="2" fill="#EDEBE9"/>
<circle cx="6" cy="14.0078" r="2" fill="#EDEBE9"/>
<circle cx="6" cy="18.0078" r="2" fill="#EDEBE9"/>
<circle cx="6" cy="22.0078" r="2" fill="#EDEBE9"/>
<circle cx="6" cy="30.0078" r="2" fill="#EDEBE9"/>
<circle cx="6" cy="26.0078" r="2" fill="#EDEBE9"/>
<circle cx="2" cy="22.0078" r="2" fill="#EDEBE9"/>
<circle cx="2" cy="26.0078" r="2" fill="#EDEBE9"/>
<circle cx="2" cy="10.0078" r="2" fill="#EDEBE9"/>
<circle cx="2" cy="14.0078" r="2" fill="#EDEBE9"/>
<circle cx="2" cy="18.0078" r="2" fill="#EDEBE9"/>
</g>
<mask id="mask0_1502_7079" style="mask-type:alpha" maskUnits="userSpaceOnUse" x="8" y="9" width="21" height="20">
<rect x="8.33789" y="9.13281" width="19.8672" height="19.8672" fill="#D9D9D9"/>
</mask>
<g mask="url(#mask0_1502_7079)">
<path d="M17.4445 25.6882C17.2099 25.6882 17.0133 25.6088 16.8546 25.4502C16.696 25.2915 16.6167 25.0949 16.6167 24.8604V19.8936L11.8154 13.7678C11.6085 13.4919 11.5774 13.2022 11.7223 12.8986C11.8672 12.5951 12.1189 12.4434 12.4777 12.4434H24.0668C24.4256 12.4434 24.6773 12.5951 24.8222 12.8986C24.9671 13.2022 24.936 13.4919 24.7291 13.7678L19.9278 19.8936V24.8604C19.9278 25.0949 19.8485 25.2915 19.6899 25.4502C19.5312 25.6088 19.3346 25.6882 19.1001 25.6882H17.4445ZM18.2723 19.3141L22.3699 14.099H14.1746L18.2723 19.3141Z" fill="#EDEBE9"/>
</g>
</svg>
