<svg width="80" height="30" viewBox="0 0 80 30" fill="none" xmlns="http://www.w3.org/2000/svg">
<mask id="mask0_1244_13762" style="mask-type:alpha" maskUnits="userSpaceOnUse" x="0" y="0" width="80" height="30">
<rect opacity="0.35" width="80" height="30" rx="8" fill="#FFDE98"/>
</mask>
<g mask="url(#mask0_1244_13762)">
<g opacity="0.7">
<g style="mix-blend-mode:overlay">
<path d="M15.75 1.875C15.75 2.91053 14.9105 3.75 13.875 3.75C12.8395 3.75 12 2.91053 12 1.875C12 0.839466 12.8395 0 13.875 0C14.9105 0 15.75 0.839466 15.75 1.875Z" fill="white"/>
<path d="M11.75 1.875C11.75 2.91053 10.9105 3.75 9.875 3.75C8.83947 3.75 8 2.91053 8 1.875C8 0.839466 8.83947 0 9.875 0C10.9105 0 11.75 0.839466 11.75 1.875Z" fill="white"/>
<path d="M45.75 1.875C45.75 2.91053 44.9105 3.75 43.875 3.75C42.8395 3.75 42 2.91053 42 1.875C42 0.839466 42.8395 0 43.875 0C44.9105 0 45.75 0.839466 45.75 1.875Z" fill="white"/>
<path d="M7.75 16.875C7.75 17.9105 6.91053 18.75 5.875 18.75C4.83947 18.75 4 17.9105 4 16.875C4 15.8395 4.83947 15 5.875 15C6.91053 15 7.75 15.8395 7.75 16.875Z" fill="white"/>
<path d="M3.75 16.875C3.75 17.9105 2.91053 18.75 1.875 18.75C0.839466 18.75 0 17.9105 0 16.875C0 15.8395 0.839466 15 1.875 15C2.91053 15 3.75 15.8395 3.75 16.875Z" fill="white"/>
<path d="M45.75 16.875C45.75 17.9105 44.9105 18.75 43.875 18.75C42.8395 18.75 42 17.9105 42 16.875C42 15.8395 42.8395 15 43.875 15C44.9105 15 45.75 15.8395 45.75 16.875Z" fill="white"/>
<path d="M7.75 9.375C7.75 10.4105 6.91053 11.25 5.875 11.25C4.83947 11.25 4 10.4105 4 9.375C4 8.33947 4.83947 7.5 5.875 7.5C6.91053 7.5 7.75 8.33947 7.75 9.375Z" fill="white"/>
<path d="M3.75 9.375C3.75 10.4105 2.91053 11.25 1.875 11.25C0.839466 11.25 0 10.4105 0 9.375C0 8.33947 0.839466 7.5 1.875 7.5C2.91053 7.5 3.75 8.33947 3.75 9.375Z" fill="white"/>
<path d="M45.75 9.375C45.75 10.4105 44.9105 11.25 43.875 11.25C42.8395 11.25 42 10.4105 42 9.375C42 8.33947 42.8395 7.5 43.875 7.5C44.9105 7.5 45.75 8.33947 45.75 9.375Z" fill="white"/>
<path d="M15.75 24.375C15.75 25.4105 14.9105 26.25 13.875 26.25C12.8395 26.25 12 25.4105 12 24.375C12 23.3395 12.8395 22.5 13.875 22.5C14.9105 22.5 15.75 23.3395 15.75 24.375Z" fill="white"/>
<path d="M11.75 24.375C11.75 25.4105 10.9105 26.25 9.875 26.25C8.83947 26.25 8 25.4105 8 24.375C8 23.3395 8.83947 22.5 9.875 22.5C10.9105 22.5 11.75 23.3395 11.75 24.375Z" fill="white"/>
<path d="M7.75 24.375C7.75 25.4105 6.91053 26.25 5.875 26.25C4.83947 26.25 4 25.4105 4 24.375C4 23.3395 4.83947 22.5 5.875 22.5C6.91053 22.5 7.75 23.3395 7.75 24.375Z" fill="white"/>
<path d="M45.75 24.375C45.75 25.4105 44.9105 26.25 43.875 26.25C42.8395 26.25 42 25.4105 42 24.375C42 23.3395 42.8395 22.5 43.875 22.5C44.9105 22.5 45.75 23.3395 45.75 24.375Z" fill="white"/>
<path d="M30.75 1.875C30.75 2.91053 29.9105 3.75 28.875 3.75C27.8395 3.75 27 2.91053 27 1.875C27 0.839466 27.8395 0 28.875 0C29.9105 0 30.75 0.839466 30.75 1.875Z" fill="white"/>
<path d="M60.75 1.875C60.75 2.91053 59.9105 3.75 58.875 3.75C57.8395 3.75 57 2.91053 57 1.875C57 0.839466 57.8395 0 58.875 0C59.9105 0 60.75 0.839466 60.75 1.875Z" fill="white"/>
<path d="M30.75 16.875C30.75 17.9105 29.9105 18.75 28.875 18.75C27.8395 18.75 27 17.9105 27 16.875C27 15.8395 27.8395 15 28.875 15C29.9105 15 30.75 15.8395 30.75 16.875Z" fill="white"/>
<path d="M60.75 16.875C60.75 17.9105 59.9105 18.75 58.875 18.75C57.8395 18.75 57 17.9105 57 16.875C57 15.8395 57.8395 15 58.875 15C59.9105 15 60.75 15.8395 60.75 16.875Z" fill="white"/>
<path d="M30.75 9.375C30.75 10.4105 29.9105 11.25 28.875 11.25C27.8395 11.25 27 10.4105 27 9.375C27 8.33947 27.8395 7.5 28.875 7.5C29.9105 7.5 30.75 8.33947 30.75 9.375Z" fill="white"/>
<path d="M60.75 9.375C60.75 10.4105 59.9105 11.25 58.875 11.25C57.8395 11.25 57 10.4105 57 9.375C57 8.33947 57.8395 7.5 58.875 7.5C59.9105 7.5 60.75 8.33947 60.75 9.375Z" fill="white"/>
<path d="M30.75 24.375C30.75 25.4105 29.9105 26.25 28.875 26.25C27.8395 26.25 27 25.4105 27 24.375C27 23.3395 27.8395 22.5 28.875 22.5C29.9105 22.5 30.75 23.3395 30.75 24.375Z" fill="white"/>
<path d="M60.75 24.375C60.75 25.4105 59.9105 26.25 58.875 26.25C57.8395 26.25 57 25.4105 57 24.375C57 23.3395 57.8395 22.5 58.875 22.5C59.9105 22.5 60.75 23.3395 60.75 24.375Z" fill="white"/>
<path d="M23.25 1.875C23.25 2.91053 22.4105 3.75 21.375 3.75C20.3395 3.75 19.5 2.91053 19.5 1.875C19.5 0.839466 20.3395 0 21.375 0C22.4105 0 23.25 0.839466 23.25 1.875Z" fill="white"/>
<path d="M53.25 1.875C53.25 2.91053 52.4105 3.75 51.375 3.75C50.3395 3.75 49.5 2.91053 49.5 1.875C49.5 0.839466 50.3395 0 51.375 0C52.4105 0 53.25 0.839466 53.25 1.875Z" fill="white"/>
<path d="M53.25 16.875C53.25 17.9105 52.4105 18.75 51.375 18.75C50.3395 18.75 49.5 17.9105 49.5 16.875C49.5 15.8395 50.3395 15 51.375 15C52.4105 15 53.25 15.8395 53.25 16.875Z" fill="white"/>
<path d="M23.25 9.375C23.25 10.4105 22.4105 11.25 21.375 11.25C20.3395 11.25 19.5 10.4105 19.5 9.375C19.5 8.33947 20.3395 7.5 21.375 7.5C22.4105 7.5 23.25 8.33947 23.25 9.375Z" fill="white"/>
<path d="M53.25 9.375C53.25 10.4105 52.4105 11.25 51.375 11.25C50.3395 11.25 49.5 10.4105 49.5 9.375C49.5 8.33947 50.3395 7.5 51.375 7.5C52.4105 7.5 53.25 8.33947 53.25 9.375Z" fill="white"/>
<path d="M23.25 24.375C23.25 25.4105 22.4105 26.25 21.375 26.25C20.3395 26.25 19.5 25.4105 19.5 24.375C19.5 23.3395 20.3395 22.5 21.375 22.5C22.4105 22.5 23.25 23.3395 23.25 24.375Z" fill="white"/>
<path d="M53.25 24.375C53.25 25.4105 52.4105 26.25 51.375 26.25C50.3395 26.25 49.5 25.4105 49.5 24.375C49.5 23.3395 50.3395 22.5 51.375 22.5C52.4105 22.5 53.25 23.3395 53.25 24.375Z" fill="white"/>
<path d="M38.25 1.875C38.25 2.91053 37.4105 3.75 36.375 3.75C35.3395 3.75 34.5 2.91053 34.5 1.875C34.5 0.839466 35.3395 0 36.375 0C37.4105 0 38.25 0.839466 38.25 1.875Z" fill="white"/>
<path d="M68.25 1.875C68.25 2.91053 67.4105 3.75 66.375 3.75C65.3395 3.75 64.5 2.91053 64.5 1.875C64.5 0.839466 65.3395 0 66.375 0C67.4105 0 68.25 0.839466 68.25 1.875Z" fill="white"/>
<path d="M38.25 16.875C38.25 17.9105 37.4105 18.75 36.375 18.75C35.3395 18.75 34.5 17.9105 34.5 16.875C34.5 15.8395 35.3395 15 36.375 15C37.4105 15 38.25 15.8395 38.25 16.875Z" fill="white"/>
<path d="M68.25 16.875C68.25 17.9105 67.4105 18.75 66.375 18.75C65.3395 18.75 64.5 17.9105 64.5 16.875C64.5 15.8395 65.3395 15 66.375 15C67.4105 15 68.25 15.8395 68.25 16.875Z" fill="white"/>
<path d="M38.25 9.375C38.25 10.4105 37.4105 11.25 36.375 11.25C35.3395 11.25 34.5 10.4105 34.5 9.375C34.5 8.33947 35.3395 7.5 36.375 7.5C37.4105 7.5 38.25 8.33947 38.25 9.375Z" fill="white"/>
<path d="M68.25 9.375C68.25 10.4105 67.4105 11.25 66.375 11.25C65.3395 11.25 64.5 10.4105 64.5 9.375C64.5 8.33947 65.3395 7.5 66.375 7.5C67.4105 7.5 68.25 8.33947 68.25 9.375Z" fill="white"/>
<path d="M38.25 24.375C38.25 25.4105 37.4105 26.25 36.375 26.25C35.3395 26.25 34.5 25.4105 34.5 24.375C34.5 23.3395 35.3395 22.5 36.375 22.5C37.4105 22.5 38.25 23.3395 38.25 24.375Z" fill="white"/>
<path d="M68.25 24.375C68.25 25.4105 67.4105 26.25 66.375 26.25C65.3395 26.25 64.5 25.4105 64.5 24.375C64.5 23.3395 65.3395 22.5 66.375 22.5C67.4105 22.5 68.25 23.3395 68.25 24.375Z" fill="white"/>
<path d="M19.5 1.875C19.5 2.91053 18.6605 3.75 17.625 3.75C16.5895 3.75 15.75 2.91053 15.75 1.875C15.75 0.839466 16.5895 0 17.625 0C18.6605 0 19.5 0.839466 19.5 1.875Z" fill="white"/>
<path d="M49.5 1.875C49.5 2.91053 48.6605 3.75 47.625 3.75C46.5895 3.75 45.75 2.91053 45.75 1.875C45.75 0.839466 46.5895 0 47.625 0C48.6605 0 49.5 0.839466 49.5 1.875Z" fill="white"/>
<path d="M49.5 16.875C49.5 17.9105 48.6605 18.75 47.625 18.75C46.5895 18.75 45.75 17.9105 45.75 16.875C45.75 15.8395 46.5895 15 47.625 15C48.6605 15 49.5 15.8395 49.5 16.875Z" fill="white"/>
<path d="M49.5 9.375C49.5 10.4105 48.6605 11.25 47.625 11.25C46.5895 11.25 45.75 10.4105 45.75 9.375C45.75 8.33947 46.5895 7.5 47.625 7.5C48.6605 7.5 49.5 8.33947 49.5 9.375Z" fill="white"/>
<path d="M19.5 24.375C19.5 25.4105 18.6605 26.25 17.625 26.25C16.5895 26.25 15.75 25.4105 15.75 24.375C15.75 23.3395 16.5895 22.5 17.625 22.5C18.6605 22.5 19.5 23.3395 19.5 24.375Z" fill="white"/>
<path d="M49.5 24.375C49.5 25.4105 48.6605 26.25 47.625 26.25C46.5895 26.25 45.75 25.4105 45.75 24.375C45.75 23.3395 46.5895 22.5 47.625 22.5C48.6605 22.5 49.5 23.3395 49.5 24.375Z" fill="white"/>
<path d="M34.5 1.875C34.5 2.91053 33.6605 3.75 32.625 3.75C31.5895 3.75 30.75 2.91053 30.75 1.875C30.75 0.839466 31.5895 0 32.625 0C33.6605 0 34.5 0.839466 34.5 1.875Z" fill="white"/>
<path d="M64.5 1.875C64.5 2.91053 63.6605 3.75 62.625 3.75C61.5895 3.75 60.75 2.91053 60.75 1.875C60.75 0.839466 61.5895 0 62.625 0C63.6605 0 64.5 0.839466 64.5 1.875Z" fill="white"/>
<path d="M34.5 16.875C34.5 17.9105 33.6605 18.75 32.625 18.75C31.5895 18.75 30.75 17.9105 30.75 16.875C30.75 15.8395 31.5895 15 32.625 15C33.6605 15 34.5 15.8395 34.5 16.875Z" fill="white"/>
<path d="M64.5 16.875C64.5 17.9105 63.6605 18.75 62.625 18.75C61.5895 18.75 60.75 17.9105 60.75 16.875C60.75 15.8395 61.5895 15 62.625 15C63.6605 15 64.5 15.8395 64.5 16.875Z" fill="white"/>
<path d="M34.5 9.375C34.5 10.4105 33.6605 11.25 32.625 11.25C31.5895 11.25 30.75 10.4105 30.75 9.375C30.75 8.33947 31.5895 7.5 32.625 7.5C33.6605 7.5 34.5 8.33947 34.5 9.375Z" fill="white"/>
<path d="M64.5 9.375C64.5 10.4105 63.6605 11.25 62.625 11.25C61.5895 11.25 60.75 10.4105 60.75 9.375C60.75 8.33947 61.5895 7.5 62.625 7.5C63.6605 7.5 64.5 8.33947 64.5 9.375Z" fill="white"/>
<path d="M34.5 24.375C34.5 25.4105 33.6605 26.25 32.625 26.25C31.5895 26.25 30.75 25.4105 30.75 24.375C30.75 23.3395 31.5895 22.5 32.625 22.5C33.6605 22.5 34.5 23.3395 34.5 24.375Z" fill="white"/>
<path d="M64.5 24.375C64.5 25.4105 63.6605 26.25 62.625 26.25C61.5895 26.25 60.75 25.4105 60.75 24.375C60.75 23.3395 61.5895 22.5 62.625 22.5C63.6605 22.5 64.5 23.3395 64.5 24.375Z" fill="white"/>
<path d="M27 1.875C27 2.91053 26.1605 3.75 25.125 3.75C24.0895 3.75 23.25 2.91053 23.25 1.875C23.25 0.839466 24.0895 0 25.125 0C26.1605 0 27 0.839466 27 1.875Z" fill="white"/>
<path d="M57 1.875C57 2.91053 56.1605 3.75 55.125 3.75C54.0895 3.75 53.25 2.91053 53.25 1.875C53.25 0.839466 54.0895 0 55.125 0C56.1605 0 57 0.839466 57 1.875Z" fill="white"/>
<path d="M27 16.875C27 17.9105 26.1605 18.75 25.125 18.75C24.0895 18.75 23.25 17.9105 23.25 16.875C23.25 15.8395 24.0895 15 25.125 15C26.1605 15 27 15.8395 27 16.875Z" fill="white"/>
<path d="M57 16.875C57 17.9105 56.1605 18.75 55.125 18.75C54.0895 18.75 53.25 17.9105 53.25 16.875C53.25 15.8395 54.0895 15 55.125 15C56.1605 15 57 15.8395 57 16.875Z" fill="white"/>
<path d="M27 9.375C27 10.4105 26.1605 11.25 25.125 11.25C24.0895 11.25 23.25 10.4105 23.25 9.375C23.25 8.33947 24.0895 7.5 25.125 7.5C26.1605 7.5 27 8.33947 27 9.375Z" fill="white"/>
<path d="M57 9.375C57 10.4105 56.1605 11.25 55.125 11.25C54.0895 11.25 53.25 10.4105 53.25 9.375C53.25 8.33947 54.0895 7.5 55.125 7.5C56.1605 7.5 57 8.33947 57 9.375Z" fill="white"/>
<path d="M27 24.375C27 25.4105 26.1605 26.25 25.125 26.25C24.0895 26.25 23.25 25.4105 23.25 24.375C23.25 23.3395 24.0895 22.5 25.125 22.5C26.1605 22.5 27 23.3395 27 24.375Z" fill="white"/>
<path d="M57 24.375C57 25.4105 56.1605 26.25 55.125 26.25C54.0895 26.25 53.25 25.4105 53.25 24.375C53.25 23.3395 54.0895 22.5 55.125 22.5C56.1605 22.5 57 23.3395 57 24.375Z" fill="white"/>
<path d="M42 1.875C42 2.91053 41.1605 3.75 40.125 3.75C39.0895 3.75 38.25 2.91053 38.25 1.875C38.25 0.839466 39.0895 0 40.125 0C41.1605 0 42 0.839466 42 1.875Z" fill="white"/>
<path d="M72 1.875C72 2.91053 71.1605 3.75 70.125 3.75C69.0895 3.75 68.25 2.91053 68.25 1.875C68.25 0.839466 69.0895 0 70.125 0C71.1605 0 72 0.839466 72 1.875Z" fill="white"/>
<path d="M42 16.875C42 17.9105 41.1605 18.75 40.125 18.75C39.0895 18.75 38.25 17.9105 38.25 16.875C38.25 15.8395 39.0895 15 40.125 15C41.1605 15 42 15.8395 42 16.875Z" fill="white"/>
<path d="M72 16.875C72 17.9105 71.1605 18.75 70.125 18.75C69.0895 18.75 68.25 17.9105 68.25 16.875C68.25 15.8395 69.0895 15 70.125 15C71.1605 15 72 15.8395 72 16.875Z" fill="white"/>
<path d="M75.75 16.875C75.75 17.9105 74.9105 18.75 73.875 18.75C72.8395 18.75 72 17.9105 72 16.875C72 15.8395 72.8395 15 73.875 15C74.9105 15 75.75 15.8395 75.75 16.875Z" fill="white"/>
<path d="M79.75 16.875C79.75 17.9105 78.9105 18.75 77.875 18.75C76.8395 18.75 76 17.9105 76 16.875C76 15.8395 76.8395 15 77.875 15C78.9105 15 79.75 15.8395 79.75 16.875Z" fill="white"/>
<path d="M42 9.375C42 10.4105 41.1605 11.25 40.125 11.25C39.0895 11.25 38.25 10.4105 38.25 9.375C38.25 8.33947 39.0895 7.5 40.125 7.5C41.1605 7.5 42 8.33947 42 9.375Z" fill="white"/>
<path d="M72 9.375C72 10.4105 71.1605 11.25 70.125 11.25C69.0895 11.25 68.25 10.4105 68.25 9.375C68.25 8.33947 69.0895 7.5 70.125 7.5C71.1605 7.5 72 8.33947 72 9.375Z" fill="white"/>
<path d="M75.75 9.375C75.75 10.4105 74.9105 11.25 73.875 11.25C72.8395 11.25 72 10.4105 72 9.375C72 8.33947 72.8395 7.5 73.875 7.5C74.9105 7.5 75.75 8.33947 75.75 9.375Z" fill="white"/>
<path d="M79.75 9.375C79.75 10.4105 78.9105 11.25 77.875 11.25C76.8395 11.25 76 10.4105 76 9.375C76 8.33947 76.8395 7.5 77.875 7.5C78.9105 7.5 79.75 8.33947 79.75 9.375Z" fill="white"/>
<path d="M42 24.375C42 25.4105 41.1605 26.25 40.125 26.25C39.0895 26.25 38.25 25.4105 38.25 24.375C38.25 23.3395 39.0895 22.5 40.125 22.5C41.1605 22.5 42 23.3395 42 24.375Z" fill="white"/>
<path d="M72 24.375C72 25.4105 71.1605 26.25 70.125 26.25C69.0895 26.25 68.25 25.4105 68.25 24.375C68.25 23.3395 69.0895 22.5 70.125 22.5C71.1605 22.5 72 23.3395 72 24.375Z" fill="white"/>
<path d="M75.75 24.375C75.75 25.4105 74.9105 26.25 73.875 26.25C72.8395 26.25 72 25.4105 72 24.375C72 23.3395 72.8395 22.5 73.875 22.5C74.9105 22.5 75.75 23.3395 75.75 24.375Z" fill="white"/>
<path d="M19.5 5.625C19.5 6.66053 18.6605 7.5 17.625 7.5C16.5895 7.5 15.75 6.66053 15.75 5.625C15.75 4.58947 16.5895 3.75 17.625 3.75C18.6605 3.75 19.5 4.58947 19.5 5.625Z" fill="white"/>
<path d="M49.5 5.625C49.5 6.66053 48.6605 7.5 47.625 7.5C46.5895 7.5 45.75 6.66053 45.75 5.625C45.75 4.58947 46.5895 3.75 47.625 3.75C48.6605 3.75 49.5 4.58947 49.5 5.625Z" fill="white"/>
<path d="M49.5 20.625C49.5 21.6605 48.6605 22.5 47.625 22.5C46.5895 22.5 45.75 21.6605 45.75 20.625C45.75 19.5895 46.5895 18.75 47.625 18.75C48.6605 18.75 49.5 19.5895 49.5 20.625Z" fill="white"/>
<path d="M49.5 13.125C49.5 14.1605 48.6605 15 47.625 15C46.5895 15 45.75 14.1605 45.75 13.125C45.75 12.0895 46.5895 11.25 47.625 11.25C48.6605 11.25 49.5 12.0895 49.5 13.125Z" fill="white"/>
<path d="M19.5 28.125C19.5 29.1605 18.6605 30 17.625 30C16.5895 30 15.75 29.1605 15.75 28.125C15.75 27.0895 16.5895 26.25 17.625 26.25C18.6605 26.25 19.5 27.0895 19.5 28.125Z" fill="white"/>
<path d="M49.5 28.125C49.5 29.1605 48.6605 30 47.625 30C46.5895 30 45.75 29.1605 45.75 28.125C45.75 27.0895 46.5895 26.25 47.625 26.25C48.6605 26.25 49.5 27.0895 49.5 28.125Z" fill="white"/>
<path d="M34.5 5.625C34.5 6.66053 33.6605 7.5 32.625 7.5C31.5895 7.5 30.75 6.66053 30.75 5.625C30.75 4.58947 31.5895 3.75 32.625 3.75C33.6605 3.75 34.5 4.58947 34.5 5.625Z" fill="white"/>
<path d="M64.5 5.625C64.5 6.66053 63.6605 7.5 62.625 7.5C61.5895 7.5 60.75 6.66053 60.75 5.625C60.75 4.58947 61.5895 3.75 62.625 3.75C63.6605 3.75 64.5 4.58947 64.5 5.625Z" fill="white"/>
<path d="M34.5 20.625C34.5 21.6605 33.6605 22.5 32.625 22.5C31.5895 22.5 30.75 21.6605 30.75 20.625C30.75 19.5895 31.5895 18.75 32.625 18.75C33.6605 18.75 34.5 19.5895 34.5 20.625Z" fill="white"/>
<path d="M64.5 20.625C64.5 21.6605 63.6605 22.5 62.625 22.5C61.5895 22.5 60.75 21.6605 60.75 20.625C60.75 19.5895 61.5895 18.75 62.625 18.75C63.6605 18.75 64.5 19.5895 64.5 20.625Z" fill="white"/>
<path d="M34.5 13.125C34.5 14.1605 33.6605 15 32.625 15C31.5895 15 30.75 14.1605 30.75 13.125C30.75 12.0895 31.5895 11.25 32.625 11.25C33.6605 11.25 34.5 12.0895 34.5 13.125Z" fill="white"/>
<path d="M64.5 13.125C64.5 14.1605 63.6605 15 62.625 15C61.5895 15 60.75 14.1605 60.75 13.125C60.75 12.0895 61.5895 11.25 62.625 11.25C63.6605 11.25 64.5 12.0895 64.5 13.125Z" fill="white"/>
<path d="M34.5 28.125C34.5 29.1605 33.6605 30 32.625 30C31.5895 30 30.75 29.1605 30.75 28.125C30.75 27.0895 31.5895 26.25 32.625 26.25C33.6605 26.25 34.5 27.0895 34.5 28.125Z" fill="white"/>
<path d="M64.5 28.125C64.5 29.1605 63.6605 30 62.625 30C61.5895 30 60.75 29.1605 60.75 28.125C60.75 27.0895 61.5895 26.25 62.625 26.25C63.6605 26.25 64.5 27.0895 64.5 28.125Z" fill="white"/>
<path d="M27 5.625C27 6.66053 26.1605 7.5 25.125 7.5C24.0895 7.5 23.25 6.66053 23.25 5.625C23.25 4.58947 24.0895 3.75 25.125 3.75C26.1605 3.75 27 4.58947 27 5.625Z" fill="white"/>
<path d="M57 5.625C57 6.66053 56.1605 7.5 55.125 7.5C54.0895 7.5 53.25 6.66053 53.25 5.625C53.25 4.58947 54.0895 3.75 55.125 3.75C56.1605 3.75 57 4.58947 57 5.625Z" fill="white"/>
<path d="M27 20.625C27 21.6605 26.1605 22.5 25.125 22.5C24.0895 22.5 23.25 21.6605 23.25 20.625C23.25 19.5895 24.0895 18.75 25.125 18.75C26.1605 18.75 27 19.5895 27 20.625Z" fill="white"/>
<path d="M57 20.625C57 21.6605 56.1605 22.5 55.125 22.5C54.0895 22.5 53.25 21.6605 53.25 20.625C53.25 19.5895 54.0895 18.75 55.125 18.75C56.1605 18.75 57 19.5895 57 20.625Z" fill="white"/>
<path d="M27 13.125C27 14.1605 26.1605 15 25.125 15C24.0895 15 23.25 14.1605 23.25 13.125C23.25 12.0895 24.0895 11.25 25.125 11.25C26.1605 11.25 27 12.0895 27 13.125Z" fill="white"/>
<path d="M57 13.125C57 14.1605 56.1605 15 55.125 15C54.0895 15 53.25 14.1605 53.25 13.125C53.25 12.0895 54.0895 11.25 55.125 11.25C56.1605 11.25 57 12.0895 57 13.125Z" fill="white"/>
<path d="M27 28.125C27 29.1605 26.1605 30 25.125 30C24.0895 30 23.25 29.1605 23.25 28.125C23.25 27.0895 24.0895 26.25 25.125 26.25C26.1605 26.25 27 27.0895 27 28.125Z" fill="white"/>
<path d="M57 28.125C57 29.1605 56.1605 30 55.125 30C54.0895 30 53.25 29.1605 53.25 28.125C53.25 27.0895 54.0895 26.25 55.125 26.25C56.1605 26.25 57 27.0895 57 28.125Z" fill="white"/>
<path d="M42 5.625C42 6.66053 41.1605 7.5 40.125 7.5C39.0895 7.5 38.25 6.66053 38.25 5.625C38.25 4.58947 39.0895 3.75 40.125 3.75C41.1605 3.75 42 4.58947 42 5.625Z" fill="white"/>
<path d="M72 5.625C72 6.66053 71.1605 7.5 70.125 7.5C69.0895 7.5 68.25 6.66053 68.25 5.625C68.25 4.58947 69.0895 3.75 70.125 3.75C71.1605 3.75 72 4.58947 72 5.625Z" fill="white"/>
<path d="M75.75 5.625C75.75 6.66053 74.9105 7.5 73.875 7.5C72.8395 7.5 72 6.66053 72 5.625C72 4.58947 72.8395 3.75 73.875 3.75C74.9105 3.75 75.75 4.58947 75.75 5.625Z" fill="white"/>
<path d="M42 20.625C42 21.6605 41.1605 22.5 40.125 22.5C39.0895 22.5 38.25 21.6605 38.25 20.625C38.25 19.5895 39.0895 18.75 40.125 18.75C41.1605 18.75 42 19.5895 42 20.625Z" fill="white"/>
<path d="M72 20.625C72 21.6605 71.1605 22.5 70.125 22.5C69.0895 22.5 68.25 21.6605 68.25 20.625C68.25 19.5895 69.0895 18.75 70.125 18.75C71.1605 18.75 72 19.5895 72 20.625Z" fill="white"/>
<path d="M75.75 20.625C75.75 21.6605 74.9105 22.5 73.875 22.5C72.8395 22.5 72 21.6605 72 20.625C72 19.5895 72.8395 18.75 73.875 18.75C74.9105 18.75 75.75 19.5895 75.75 20.625Z" fill="white"/>
<path d="M79.75 20.625C79.75 21.6605 78.9105 22.5 77.875 22.5C76.8395 22.5 76 21.6605 76 20.625C76 19.5895 76.8395 18.75 77.875 18.75C78.9105 18.75 79.75 19.5895 79.75 20.625Z" fill="white"/>
<path d="M42 13.125C42 14.1605 41.1605 15 40.125 15C39.0895 15 38.25 14.1605 38.25 13.125C38.25 12.0895 39.0895 11.25 40.125 11.25C41.1605 11.25 42 12.0895 42 13.125Z" fill="white"/>
<path d="M72 13.125C72 14.1605 71.1605 15 70.125 15C69.0895 15 68.25 14.1605 68.25 13.125C68.25 12.0895 69.0895 11.25 70.125 11.25C71.1605 11.25 72 12.0895 72 13.125Z" fill="white"/>
<path d="M75.75 13.125C75.75 14.1605 74.9105 15 73.875 15C72.8395 15 72 14.1605 72 13.125C72 12.0895 72.8395 11.25 73.875 11.25C74.9105 11.25 75.75 12.0895 75.75 13.125Z" fill="white"/>
<path d="M79.75 13.125C79.75 14.1605 78.9105 15 77.875 15C76.8395 15 76 14.1605 76 13.125C76 12.0895 76.8395 11.25 77.875 11.25C78.9105 11.25 79.75 12.0895 79.75 13.125Z" fill="white"/>
<path d="M42 28.125C42 29.1605 41.1605 30 40.125 30C39.0895 30 38.25 29.1605 38.25 28.125C38.25 27.0895 39.0895 26.25 40.125 26.25C41.1605 26.25 42 27.0895 42 28.125Z" fill="white"/>
<path d="M72 28.125C72 29.1605 71.1605 30 70.125 30C69.0895 30 68.25 29.1605 68.25 28.125C68.25 27.0895 69.0895 26.25 70.125 26.25C71.1605 26.25 72 27.0895 72 28.125Z" fill="white"/>
<path d="M15.75 5.625C15.75 6.66053 14.9105 7.5 13.875 7.5C12.8395 7.5 12 6.66053 12 5.625C12 4.58947 12.8395 3.75 13.875 3.75C14.9105 3.75 15.75 4.58947 15.75 5.625Z" fill="white"/>
<path d="M11.75 5.625C11.75 6.66053 10.9105 7.5 9.875 7.5C8.83947 7.5 8 6.66053 8 5.625C8 4.58947 8.83947 3.75 9.875 3.75C10.9105 3.75 11.75 4.58947 11.75 5.625Z" fill="white"/>
<path d="M7.75 5.625C7.75 6.66053 6.91053 7.5 5.875 7.5C4.83947 7.5 4 6.66053 4 5.625C4 4.58947 4.83947 3.75 5.875 3.75C6.91053 3.75 7.75 4.58947 7.75 5.625Z" fill="white"/>
<path d="M45.75 5.625C45.75 6.66053 44.9105 7.5 43.875 7.5C42.8395 7.5 42 6.66053 42 5.625C42 4.58947 42.8395 3.75 43.875 3.75C44.9105 3.75 45.75 4.58947 45.75 5.625Z" fill="white"/>
<path d="M11.75 20.625C11.75 21.6605 10.9105 22.5 9.875 22.5C8.83947 22.5 8 21.6605 8 20.625C8 19.5895 8.83947 18.75 9.875 18.75C10.9105 18.75 11.75 19.5895 11.75 20.625Z" fill="white"/>
<path d="M7.75 20.625C7.75 21.6605 6.91053 22.5 5.875 22.5C4.83947 22.5 4 21.6605 4 20.625C4 19.5895 4.83947 18.75 5.875 18.75C6.91053 18.75 7.75 19.5895 7.75 20.625Z" fill="white"/>
<path d="M3.75 20.625C3.75 21.6605 2.91053 22.5 1.875 22.5C0.839466 22.5 0 21.6605 0 20.625C0 19.5895 0.839466 18.75 1.875 18.75C2.91053 18.75 3.75 19.5895 3.75 20.625Z" fill="white"/>
<path d="M45.75 20.625C45.75 21.6605 44.9105 22.5 43.875 22.5C42.8395 22.5 42 21.6605 42 20.625C42 19.5895 42.8395 18.75 43.875 18.75C44.9105 18.75 45.75 19.5895 45.75 20.625Z" fill="white"/>
<path d="M7.75 13.125C7.75 14.1605 6.91053 15 5.875 15C4.83947 15 4 14.1605 4 13.125C4 12.0895 4.83947 11.25 5.875 11.25C6.91053 11.25 7.75 12.0895 7.75 13.125Z" fill="white"/>
<path d="M3.75 13.125C3.75 14.1605 2.91053 15 1.875 15C0.839466 15 0 14.1605 0 13.125C0 12.0895 0.839466 11.25 1.875 11.25C2.91053 11.25 3.75 12.0895 3.75 13.125Z" fill="white"/>
<path d="M45.75 13.125C45.75 14.1605 44.9105 15 43.875 15C42.8395 15 42 14.1605 42 13.125C42 12.0895 42.8395 11.25 43.875 11.25C44.9105 11.25 45.75 12.0895 45.75 13.125Z" fill="white"/>
<path d="M15.75 28.125C15.75 29.1605 14.9105 30 13.875 30C12.8395 30 12 29.1605 12 28.125C12 27.0895 12.8395 26.25 13.875 26.25C14.9105 26.25 15.75 27.0895 15.75 28.125Z" fill="white"/>
<path d="M11.75 28.125C11.75 29.1605 10.9105 30 9.875 30C8.83947 30 8 29.1605 8 28.125C8 27.0895 8.83947 26.25 9.875 26.25C10.9105 26.25 11.75 27.0895 11.75 28.125Z" fill="white"/>
<path d="M45.75 28.125C45.75 29.1605 44.9105 30 43.875 30C42.8395 30 42 29.1605 42 28.125C42 27.0895 42.8395 26.25 43.875 26.25C44.9105 26.25 45.75 27.0895 45.75 28.125Z" fill="white"/>
<path d="M30.75 5.625C30.75 6.66053 29.9105 7.5 28.875 7.5C27.8395 7.5 27 6.66053 27 5.625C27 4.58947 27.8395 3.75 28.875 3.75C29.9105 3.75 30.75 4.58947 30.75 5.625Z" fill="white"/>
<path d="M60.75 5.625C60.75 6.66053 59.9105 7.5 58.875 7.5C57.8395 7.5 57 6.66053 57 5.625C57 4.58947 57.8395 3.75 58.875 3.75C59.9105 3.75 60.75 4.58947 60.75 5.625Z" fill="white"/>
<path d="M30.75 20.625C30.75 21.6605 29.9105 22.5 28.875 22.5C27.8395 22.5 27 21.6605 27 20.625C27 19.5895 27.8395 18.75 28.875 18.75C29.9105 18.75 30.75 19.5895 30.75 20.625Z" fill="white"/>
<path d="M60.75 20.625C60.75 21.6605 59.9105 22.5 58.875 22.5C57.8395 22.5 57 21.6605 57 20.625C57 19.5895 57.8395 18.75 58.875 18.75C59.9105 18.75 60.75 19.5895 60.75 20.625Z" fill="white"/>
<path d="M30.75 13.125C30.75 14.1605 29.9105 15 28.875 15C27.8395 15 27 14.1605 27 13.125C27 12.0895 27.8395 11.25 28.875 11.25C29.9105 11.25 30.75 12.0895 30.75 13.125Z" fill="white"/>
<path d="M60.75 13.125C60.75 14.1605 59.9105 15 58.875 15C57.8395 15 57 14.1605 57 13.125C57 12.0895 57.8395 11.25 58.875 11.25C59.9105 11.25 60.75 12.0895 60.75 13.125Z" fill="white"/>
<path d="M30.75 28.125C30.75 29.1605 29.9105 30 28.875 30C27.8395 30 27 29.1605 27 28.125C27 27.0895 27.8395 26.25 28.875 26.25C29.9105 26.25 30.75 27.0895 30.75 28.125Z" fill="white"/>
<path d="M60.75 28.125C60.75 29.1605 59.9105 30 58.875 30C57.8395 30 57 29.1605 57 28.125C57 27.0895 57.8395 26.25 58.875 26.25C59.9105 26.25 60.75 27.0895 60.75 28.125Z" fill="white"/>
<path d="M23.25 5.625C23.25 6.66053 22.4105 7.5 21.375 7.5C20.3395 7.5 19.5 6.66053 19.5 5.625C19.5 4.58947 20.3395 3.75 21.375 3.75C22.4105 3.75 23.25 4.58947 23.25 5.625Z" fill="white"/>
<path d="M53.25 5.625C53.25 6.66053 52.4105 7.5 51.375 7.5C50.3395 7.5 49.5 6.66053 49.5 5.625C49.5 4.58947 50.3395 3.75 51.375 3.75C52.4105 3.75 53.25 4.58947 53.25 5.625Z" fill="white"/>
<path d="M23.25 20.625C23.25 21.6605 22.4105 22.5 21.375 22.5C20.3395 22.5 19.5 21.6605 19.5 20.625C19.5 19.5895 20.3395 18.75 21.375 18.75C22.4105 18.75 23.25 19.5895 23.25 20.625Z" fill="white"/>
<path d="M53.25 20.625C53.25 21.6605 52.4105 22.5 51.375 22.5C50.3395 22.5 49.5 21.6605 49.5 20.625C49.5 19.5895 50.3395 18.75 51.375 18.75C52.4105 18.75 53.25 19.5895 53.25 20.625Z" fill="white"/>
<path d="M53.25 13.125C53.25 14.1605 52.4105 15 51.375 15C50.3395 15 49.5 14.1605 49.5 13.125C49.5 12.0895 50.3395 11.25 51.375 11.25C52.4105 11.25 53.25 12.0895 53.25 13.125Z" fill="white"/>
<path d="M23.25 28.125C23.25 29.1605 22.4105 30 21.375 30C20.3395 30 19.5 29.1605 19.5 28.125C19.5 27.0895 20.3395 26.25 21.375 26.25C22.4105 26.25 23.25 27.0895 23.25 28.125Z" fill="white"/>
<path d="M53.25 28.125C53.25 29.1605 52.4105 30 51.375 30C50.3395 30 49.5 29.1605 49.5 28.125C49.5 27.0895 50.3395 26.25 51.375 26.25C52.4105 26.25 53.25 27.0895 53.25 28.125Z" fill="white"/>
<path d="M38.25 5.625C38.25 6.66053 37.4105 7.5 36.375 7.5C35.3395 7.5 34.5 6.66053 34.5 5.625C34.5 4.58947 35.3395 3.75 36.375 3.75C37.4105 3.75 38.25 4.58947 38.25 5.625Z" fill="white"/>
<path d="M68.25 5.625C68.25 6.66053 67.4105 7.5 66.375 7.5C65.3395 7.5 64.5 6.66053 64.5 5.625C64.5 4.58947 65.3395 3.75 66.375 3.75C67.4105 3.75 68.25 4.58947 68.25 5.625Z" fill="white"/>
<path d="M38.25 20.625C38.25 21.6605 37.4105 22.5 36.375 22.5C35.3395 22.5 34.5 21.6605 34.5 20.625C34.5 19.5895 35.3395 18.75 36.375 18.75C37.4105 18.75 38.25 19.5895 38.25 20.625Z" fill="white"/>
<path d="M68.25 20.625C68.25 21.6605 67.4105 22.5 66.375 22.5C65.3395 22.5 64.5 21.6605 64.5 20.625C64.5 19.5895 65.3395 18.75 66.375 18.75C67.4105 18.75 68.25 19.5895 68.25 20.625Z" fill="white"/>
<path d="M38.25 13.125C38.25 14.1605 37.4105 15 36.375 15C35.3395 15 34.5 14.1605 34.5 13.125C34.5 12.0895 35.3395 11.25 36.375 11.25C37.4105 11.25 38.25 12.0895 38.25 13.125Z" fill="white"/>
<path d="M68.25 13.125C68.25 14.1605 67.4105 15 66.375 15C65.3395 15 64.5 14.1605 64.5 13.125C64.5 12.0895 65.3395 11.25 66.375 11.25C67.4105 11.25 68.25 12.0895 68.25 13.125Z" fill="white"/>
<path d="M38.25 28.125C38.25 29.1605 37.4105 30 36.375 30C35.3395 30 34.5 29.1605 34.5 28.125C34.5 27.0895 35.3395 26.25 36.375 26.25C37.4105 26.25 38.25 27.0895 38.25 28.125Z" fill="white"/>
<path d="M68.25 28.125C68.25 29.1605 67.4105 30 66.375 30C65.3395 30 64.5 29.1605 64.5 28.125C64.5 27.0895 65.3395 26.25 66.375 26.25C67.4105 26.25 68.25 27.0895 68.25 28.125Z" fill="white"/>
<path d="M11.75 9.375C11.75 10.4105 10.9105 11.25 9.875 11.25C8.83947 11.25 8 10.4105 8 9.375C8 8.33947 8.83947 7.5 9.875 7.5C10.9105 7.5 11.75 8.33947 11.75 9.375Z" fill="white"/>
</g>
</g>
</g>
<g style="mix-blend-mode:overlay">
<path d="M15.75 16.875C15.75 17.9105 14.9105 18.75 13.875 18.75C12.8395 18.75 12 17.9105 12 16.875C12 15.8395 12.8395 15 13.875 15C14.9105 15 15.75 15.8395 15.75 16.875Z" fill="white"/>
<path d="M19.5 16.875C19.5 17.9105 18.6605 18.75 17.625 18.75C16.5895 18.75 15.75 17.9105 15.75 16.875C15.75 15.8395 16.5895 15 17.625 15C18.6605 15 19.5 15.8395 19.5 16.875Z" fill="white"/>
<path d="M19.5 20.625C19.5 21.6605 18.6605 22.5 17.625 22.5C16.5895 22.5 15.75 21.6605 15.75 20.625C15.75 19.5895 16.5895 18.75 17.625 18.75C18.6605 18.75 19.5 19.5895 19.5 20.625Z" fill="white"/>
<path d="M19.5 13.125C19.5 14.1605 18.6605 15 17.625 15C16.5895 15 15.75 14.1605 15.75 13.125C15.75 12.0895 16.5895 11.25 17.625 11.25C18.6605 11.25 19.5 12.0895 19.5 13.125Z" fill="white"/>
<path d="M15.75 13.125C15.75 14.1605 14.9105 15 13.875 15C12.8395 15 12 14.1605 12 13.125C12 12.0895 12.8395 11.25 13.875 11.25C14.9105 11.25 15.75 12.0895 15.75 13.125Z" fill="white"/>
<path d="M11.75 16.875C11.75 17.9105 10.9105 18.75 9.875 18.75C8.83947 18.75 8 17.9105 8 16.875C8 15.8395 8.83947 15 9.875 15C10.9105 15 11.75 15.8395 11.75 16.875Z" fill="white"/>
<path d="M15.75 9.375C15.75 10.4105 14.9105 11.25 13.875 11.25C12.8395 11.25 12 10.4105 12 9.375C12 8.33947 12.8395 7.5 13.875 7.5C14.9105 7.5 15.75 8.33947 15.75 9.375Z" fill="white"/>
<path d="M23.25 16.875C23.25 17.9105 22.4105 18.75 21.375 18.75C20.3395 18.75 19.5 17.9105 19.5 16.875C19.5 15.8395 20.3395 15 21.375 15C22.4105 15 23.25 15.8395 23.25 16.875Z" fill="white"/>
<path d="M19.5 9.375C19.5 10.4105 18.6605 11.25 17.625 11.25C16.5895 11.25 15.75 10.4105 15.75 9.375C15.75 8.33947 16.5895 7.5 17.625 7.5C18.6605 7.5 19.5 8.33947 19.5 9.375Z" fill="white"/>
<path d="M15.75 20.625C15.75 21.6605 14.9105 22.5 13.875 22.5C12.8395 22.5 12 21.6605 12 20.625C12 19.5895 12.8395 18.75 13.875 18.75C14.9105 18.75 15.75 19.5895 15.75 20.625Z" fill="white"/>
<path d="M23.25 13.125C23.25 14.1605 22.4105 15 21.375 15C20.3395 15 19.5 14.1605 19.5 13.125C19.5 12.0895 20.3395 11.25 21.375 11.25C22.4105 11.25 23.25 12.0895 23.25 13.125Z" fill="white"/>
<path d="M11.75 13.125C11.75 14.1605 10.9105 15 9.875 15C8.83947 15 8 14.1605 8 13.125C8 12.0895 8.83947 11.25 9.875 11.25C10.9105 11.25 11.75 12.0895 11.75 13.125Z" fill="white"/>
</g>
</svg>
