<svg width="266" height="36" viewBox="0 0 266 36" fill="none" xmlns="http://www.w3.org/2000/svg">
<circle cx="54" cy="1.99805" r="2" transform="rotate(-90 54 1.99805)" fill="#939393"/>
<circle cx="98" cy="1.99805" r="2" transform="rotate(-90 98 1.99805)" fill="#939393"/>
<circle cx="98" cy="5.99805" r="2" transform="rotate(-90 98 5.99805)" fill="#939393"/>
<circle cx="82" cy="5.99805" r="2" transform="rotate(-90 82 5.99805)" fill="#939393"/>
<circle cx="74" cy="1.99805" r="2" transform="rotate(-90 74 1.99805)" fill="#939393"/>
<circle cx="118" cy="1.99805" r="2" transform="rotate(-90 118 1.99805)" fill="#939393"/>
<circle cx="62" cy="1.99805" r="2" transform="rotate(-90 62 1.99805)" fill="#939393"/>
<circle cx="106" cy="1.99805" r="2" transform="rotate(-90 106 1.99805)" fill="#939393"/>
<circle cx="106" cy="5.99805" r="2" transform="rotate(-90 106 5.99805)" fill="#939393"/>
<circle cx="82" cy="1.99805" r="2" transform="rotate(-90 82 1.99805)" fill="#939393"/>
<circle cx="126" cy="1.99805" r="2" transform="rotate(-90 126 1.99805)" fill="#939393"/>
<circle cx="2" cy="1.99805" r="2" transform="rotate(-90 2 1.99805)" fill="#939393"/>
<circle cx="10" cy="1.99805" r="2" transform="rotate(-90 10 1.99805)" fill="#939393"/>
<circle cx="22" cy="13.998" r="2" transform="rotate(-90 22 13.998)" fill="#939393"/>
<circle cx="14" cy="29.998" r="2" transform="rotate(-90 14 29.998)" fill="#939393"/>
<circle cx="14" cy="33.998" r="2" transform="rotate(-90 14 33.998)" fill="#939393"/>
<circle cx="6" cy="13.998" r="2" transform="rotate(-90 6 13.998)" fill="#939393"/>
<circle cx="30" cy="13.998" r="2" transform="rotate(-90 30 13.998)" fill="#939393"/>
<circle cx="6" cy="25.998" r="2" transform="rotate(-90 6 25.998)" fill="#939393"/>
<circle cx="18" cy="25.998" r="2" transform="rotate(-90 18 25.998)" fill="#939393"/>
<circle cx="22" cy="29.998" r="2" transform="rotate(-90 22 29.998)" fill="#939393"/>
<circle cx="22" cy="33.998" r="2" transform="rotate(-90 22 33.998)" fill="#939393"/>
<circle cx="14" cy="13.998" r="2" transform="rotate(-90 14 13.998)" fill="#939393"/>
<circle cx="38" cy="13.998" r="2" transform="rotate(-90 38 13.998)" fill="#939393"/>
<circle cx="42" cy="13.998" r="2" transform="rotate(-90 42 13.998)" fill="#939393"/>
<circle cx="46" cy="13.998" r="2" transform="rotate(-90 46 13.998)" fill="#939393"/>
<circle cx="14" cy="25.998" r="2" transform="rotate(-90 14 25.998)" fill="#939393"/>
<circle cx="26" cy="25.998" r="2" transform="rotate(-90 26 25.998)" fill="#939393"/>
<circle cx="30" cy="29.998" r="2" transform="rotate(-90 30 29.998)" fill="#939393"/>
<circle cx="50" cy="1.99805" r="2" transform="rotate(-90 50 1.99805)" fill="#939393"/>
<circle cx="94" cy="1.99805" r="2" transform="rotate(-90 94 1.99805)" fill="#939393"/>
<circle cx="94" cy="5.99805" r="2" transform="rotate(-90 94 5.99805)" fill="#939393"/>
<circle cx="78" cy="5.99805" r="2" transform="rotate(-90 78 5.99805)" fill="#939393"/>
<circle cx="70" cy="1.99805" r="2" transform="rotate(-90 70 1.99805)" fill="#939393"/>
<circle cx="114" cy="1.99805" r="2" transform="rotate(-90 114 1.99805)" fill="#939393"/>
<circle cx="58" cy="1.99805" r="2" transform="rotate(-90 58 1.99805)" fill="#939393"/>
<circle cx="102" cy="1.99805" r="2" transform="rotate(-90 102 1.99805)" fill="#939393"/>
<circle cx="102" cy="5.99805" r="2" transform="rotate(-90 102 5.99805)" fill="#939393"/>
<circle cx="78" cy="1.99805" r="2" transform="rotate(-90 78 1.99805)" fill="#939393"/>
<circle cx="122" cy="1.99805" r="2" transform="rotate(-90 122 1.99805)" fill="#939393"/>
<circle cx="6" cy="1.99805" r="2" transform="rotate(-90 6 1.99805)" fill="#939393"/>
<circle cx="18" cy="13.998" r="2" transform="rotate(-90 18 13.998)" fill="#939393"/>
<circle cx="10" cy="29.998" r="2" transform="rotate(-90 10 29.998)" fill="#939393"/>
<circle cx="2" cy="13.998" r="2" transform="rotate(-90 2 13.998)" fill="#939393"/>
<circle cx="26" cy="13.998" r="2" transform="rotate(-90 26 13.998)" fill="#939393"/>
<circle cx="2" cy="25.998" r="2" transform="rotate(-90 2 25.998)" fill="#939393"/>
<circle cx="18" cy="29.998" r="2" transform="rotate(-90 18 29.998)" fill="#939393"/>
<circle cx="18" cy="33.998" r="2" transform="rotate(-90 18 33.998)" fill="#939393"/>
<circle cx="10" cy="13.998" r="2" transform="rotate(-90 10 13.998)" fill="#939393"/>
<circle cx="34" cy="13.998" r="2" transform="rotate(-90 34 13.998)" fill="#939393"/>
<circle cx="10" cy="25.998" r="2" transform="rotate(-90 10 25.998)" fill="#939393"/>
<circle cx="22" cy="25.998" r="2" transform="rotate(-90 22 25.998)" fill="#939393"/>
<circle cx="26" cy="29.998" r="2" transform="rotate(-90 26 29.998)" fill="#939393"/>
<circle cx="46" cy="1.99805" r="2" transform="rotate(-90 46 1.99805)" fill="#939393"/>
<circle cx="90" cy="1.99805" r="2" transform="rotate(-90 90 1.99805)" fill="#939393"/>
<circle cx="90" cy="5.99805" r="2" transform="rotate(-90 90 5.99805)" fill="#939393"/>
<circle cx="74" cy="5.99805" r="2" transform="rotate(-90 74 5.99805)" fill="#939393"/>
<circle cx="66" cy="1.99805" r="2" transform="rotate(-90 66 1.99805)" fill="#939393"/>
<circle cx="110" cy="1.99805" r="2" transform="rotate(-90 110 1.99805)" fill="#939393"/>
<circle cx="22" cy="17.998" r="2" transform="rotate(-90 22 17.998)" fill="#939393"/>
<circle cx="6" cy="29.998" r="2" transform="rotate(-90 6 29.998)" fill="#939393"/>
<circle cx="6" cy="17.998" r="2" transform="rotate(-90 6 17.998)" fill="#939393"/>
<circle cx="30" cy="17.998" r="2" transform="rotate(-90 30 17.998)" fill="#939393"/>
<circle cx="14" cy="17.998" r="2" transform="rotate(-90 14 17.998)" fill="#939393"/>
<circle cx="38" cy="17.998" r="2" transform="rotate(-90 38 17.998)" fill="#939393"/>
<circle cx="42" cy="17.998" r="2" transform="rotate(-90 42 17.998)" fill="#939393"/>
<circle cx="46" cy="17.998" r="2" transform="rotate(-90 46 17.998)" fill="#939393"/>
<circle cx="50" cy="17.998" r="2" transform="rotate(-90 50 17.998)" fill="#939393"/>
<circle cx="54" cy="17.998" r="2" transform="rotate(-90 54 17.998)" fill="#939393"/>
<circle cx="42" cy="1.99805" r="2" transform="rotate(-90 42 1.99805)" fill="#939393"/>
<circle cx="86" cy="1.99805" r="2" transform="rotate(-90 86 1.99805)" fill="#939393"/>
<circle cx="86" cy="5.99805" r="2" transform="rotate(-90 86 5.99805)" fill="#939393"/>
<circle cx="70" cy="5.99805" r="2" transform="rotate(-90 70 5.99805)" fill="#939393"/>
<circle cx="18" cy="17.998" r="2" transform="rotate(-90 18 17.998)" fill="#939393"/>
<circle cx="2" cy="29.998" r="2" transform="rotate(-90 2 29.998)" fill="#939393"/>
<circle cx="2" cy="17.998" r="2" transform="rotate(-90 2 17.998)" fill="#939393"/>
<circle cx="26" cy="17.998" r="2" transform="rotate(-90 26 17.998)" fill="#939393"/>
<circle cx="10" cy="17.998" r="2" transform="rotate(-90 10 17.998)" fill="#939393"/>
<circle cx="34" cy="17.998" r="2" transform="rotate(-90 34 17.998)" fill="#939393"/>
<circle cx="190" cy="1.99805" r="2" transform="rotate(-90 190 1.99805)" fill="#939393"/>
<circle cx="218" cy="1.99805" r="2" transform="rotate(-90 218 1.99805)" fill="#939393"/>
<circle cx="214" cy="1.99805" r="2" transform="rotate(-90 214 1.99805)" fill="#939393"/>
<circle cx="198" cy="1.99805" r="2" transform="rotate(-90 198 1.99805)" fill="#939393"/>
<circle cx="202" cy="1.99805" r="2" transform="rotate(-90 202 1.99805)" fill="#939393"/>
<circle cx="210" cy="1.99805" r="2" transform="rotate(-90 210 1.99805)" fill="#939393"/>
<circle cx="226" cy="1.99805" r="2" transform="rotate(-90 226 1.99805)" fill="#939393"/>
<circle cx="266" cy="9.99805" r="2" transform="rotate(-90 266 9.99805)" fill="#939393"/>
<circle cx="238" cy="5.99805" r="2" transform="rotate(-90 238 5.99805)" fill="#939393"/>
<circle cx="234" cy="1.99805" r="2" transform="rotate(-90 234 1.99805)" fill="#939393"/>
<circle cx="230" cy="1.99805" r="2" transform="rotate(-90 230 1.99805)" fill="#939393"/>
<circle cx="266" cy="13.998" r="2" transform="rotate(-90 266 13.998)" fill="#939393"/>
<circle cx="262" cy="1.99805" r="2" transform="rotate(-90 262 1.99805)" fill="#939393"/>
<circle cx="258" cy="1.99805" r="2" transform="rotate(-90 258 1.99805)" fill="#939393"/>
<circle cx="254" cy="1.99805" r="2" transform="rotate(-90 254 1.99805)" fill="#939393"/>
<circle cx="250" cy="1.99805" r="2" transform="rotate(-90 250 1.99805)" fill="#939393"/>
<circle cx="246" cy="1.99805" r="2" transform="rotate(-90 246 1.99805)" fill="#939393"/>
<circle cx="242" cy="1.99805" r="2" transform="rotate(-90 242 1.99805)" fill="#939393"/>
<circle cx="266" cy="5.99805" r="2" transform="rotate(-90 266 5.99805)" fill="#939393"/>
<circle cx="262" cy="5.99805" r="2" transform="rotate(-90 262 5.99805)" fill="#939393"/>
<circle cx="258" cy="5.99805" r="2" transform="rotate(-90 258 5.99805)" fill="#939393"/>
<circle cx="258" cy="10" r="2" transform="rotate(-90 258 10)" fill="#939393"/>
<circle cx="254" cy="5.99805" r="2" transform="rotate(-90 254 5.99805)" fill="#939393"/>
<circle cx="254" cy="10" r="2" transform="rotate(-90 254 10)" fill="#939393"/>
<circle cx="250" cy="5.99805" r="2" transform="rotate(-90 250 5.99805)" fill="#939393"/>
<circle cx="250" cy="10" r="2" transform="rotate(-90 250 10)" fill="#939393"/>
<circle cx="246" cy="5.99805" r="2" transform="rotate(-90 246 5.99805)" fill="#939393"/>
<circle cx="242" cy="5.99805" r="2" transform="rotate(-90 242 5.99805)" fill="#939393"/>
<circle cx="238" cy="1.99805" r="2" transform="rotate(-90 238 1.99805)" fill="#939393"/>
<circle cx="194" cy="1.99805" r="2" transform="rotate(-90 194 1.99805)" fill="#939393"/>
<circle cx="222" cy="1.99805" r="2" transform="rotate(-90 222 1.99805)" fill="#939393"/>
<circle cx="22" cy="9.99805" r="2" transform="rotate(-90 22 9.99805)" fill="#939393"/>
<circle cx="22" cy="5.99805" r="2" transform="rotate(-90 22 5.99805)" fill="#939393"/>
<circle cx="22" cy="21.998" r="2" transform="rotate(-90 22 21.998)" fill="#939393"/>
<circle cx="6" cy="9.99805" r="2" transform="rotate(-90 6 9.99805)" fill="#939393"/>
<circle cx="30" cy="9.99805" r="2" transform="rotate(-90 30 9.99805)" fill="#939393"/>
<circle cx="6" cy="5.99805" r="2" transform="rotate(-90 6 5.99805)" fill="#939393"/>
<circle cx="6" cy="21.998" r="2" transform="rotate(-90 6 21.998)" fill="#939393"/>
<circle cx="30" cy="21.998" r="2" transform="rotate(-90 30 21.998)" fill="#939393"/>
<circle cx="14" cy="9.99805" r="2" transform="rotate(-90 14 9.99805)" fill="#939393"/>
<circle cx="14" cy="5.99805" r="2" transform="rotate(-90 14 5.99805)" fill="#939393"/>
<circle cx="14" cy="21.998" r="2" transform="rotate(-90 14 21.998)" fill="#939393"/>
<circle cx="38" cy="21.998" r="2" transform="rotate(-90 38 21.998)" fill="#939393"/>
<circle cx="42" cy="21.998" r="2" transform="rotate(-90 42 21.998)" fill="#939393"/>
<circle cx="34" cy="25.998" r="2" transform="rotate(-90 34 25.998)" fill="#939393"/>
<circle cx="46" cy="21.998" r="2" transform="rotate(-90 46 21.998)" fill="#939393"/>
<circle cx="38" cy="25.998" r="2" transform="rotate(-90 38 25.998)" fill="#939393"/>
<circle cx="50" cy="21.998" r="2" transform="rotate(-90 50 21.998)" fill="#939393"/>
<circle cx="42" cy="25.998" r="2" transform="rotate(-90 42 25.998)" fill="#939393"/>
<circle cx="46" cy="25.998" r="2" transform="rotate(-90 46 25.998)" fill="#939393"/>
<circle cx="18" cy="9.99805" r="2" transform="rotate(-90 18 9.99805)" fill="#939393"/>
<circle cx="18" cy="5.99805" r="2" transform="rotate(-90 18 5.99805)" fill="#939393"/>
<circle cx="18" cy="21.998" r="2" transform="rotate(-90 18 21.998)" fill="#939393"/>
<circle cx="2" cy="9.99805" r="2" transform="rotate(-90 2 9.99805)" fill="#939393"/>
<circle cx="26" cy="9.99805" r="2" transform="rotate(-90 26 9.99805)" fill="#939393"/>
<circle cx="2" cy="5.99805" r="2" transform="rotate(-90 2 5.99805)" fill="#939393"/>
<circle cx="2" cy="21.998" r="2" transform="rotate(-90 2 21.998)" fill="#939393"/>
<circle cx="26" cy="21.998" r="2" transform="rotate(-90 26 21.998)" fill="#939393"/>
<circle cx="10" cy="9.99805" r="2" transform="rotate(-90 10 9.99805)" fill="#939393"/>
<circle cx="34" cy="9.99805" r="2" transform="rotate(-90 34 9.99805)" fill="#939393"/>
<circle cx="10" cy="5.99805" r="2" transform="rotate(-90 10 5.99805)" fill="#939393"/>
<circle cx="10" cy="21.998" r="2" transform="rotate(-90 10 21.998)" fill="#939393"/>
<circle cx="34" cy="21.998" r="2" transform="rotate(-90 34 21.998)" fill="#939393"/>
</svg>
