<svg width="48" height="28" viewBox="0 0 48 28" fill="none" xmlns="http://www.w3.org/2000/svg">
<g opacity="0.1">
<circle cx="46" cy="10" r="2" fill="#2D2D2D"/>
<circle cx="46" cy="14" r="2" fill="#2D2D2D"/>
<circle cx="30" cy="2" r="2" fill="#2D2D2D"/>
<circle cx="30" cy="6" r="2" fill="#2D2D2D"/>
<circle cx="30" cy="10" r="2" fill="#2D2D2D"/>
<circle cx="30" cy="14" r="2" fill="#2D2D2D"/>
<circle cx="30" cy="18" r="2" fill="#2D2D2D"/>
<circle cx="30" cy="26" r="2" fill="#2D2D2D"/>
<circle cx="42" cy="6" r="2" fill="#2D2D2D"/>
<circle cx="42" cy="10" r="2" fill="#2D2D2D"/>
<circle cx="42" cy="14" r="2" fill="#2D2D2D"/>
<circle cx="42" cy="18" r="2" fill="#2D2D2D"/>
<circle cx="42" cy="22" r="2" fill="#2D2D2D"/>
<circle cx="46" cy="18" r="2" fill="#2D2D2D"/>
<circle cx="26" cy="2" r="2" fill="#2D2D2D"/>
<circle cx="26" cy="6" r="2" fill="#2D2D2D"/>
<circle cx="26" cy="10" r="2" fill="#2D2D2D"/>
<circle cx="26" cy="14" r="2" fill="#2D2D2D"/>
<circle cx="26" cy="18" r="2" fill="#2D2D2D"/>
<circle cx="26" cy="26" r="2" fill="#2D2D2D"/>
<circle cx="38" cy="2" r="2" fill="#2D2D2D"/>
<circle cx="38" cy="6" r="2" fill="#2D2D2D"/>
<circle cx="38" cy="10" r="2" fill="#2D2D2D"/>
<circle cx="38" cy="14" r="2" fill="#2D2D2D"/>
<circle cx="38" cy="18" r="2" fill="#2D2D2D"/>
<circle cx="38" cy="26" r="2" fill="#2D2D2D"/>
<circle cx="22" cy="2" r="2" fill="#2D2D2D"/>
<circle cx="22" cy="6" r="2" fill="#2D2D2D"/>
<circle cx="22" cy="10" r="2" fill="#2D2D2D"/>
<circle cx="22" cy="14" r="2" fill="#2D2D2D"/>
<circle cx="22" cy="18" r="2" fill="#2D2D2D"/>
<circle cx="22" cy="26" r="2" fill="#2D2D2D"/>
<circle cx="34" cy="2" r="2" fill="#2D2D2D"/>
<circle cx="34" cy="6" r="2" fill="#2D2D2D"/>
<circle cx="34" cy="10" r="2" fill="#2D2D2D"/>
<circle cx="34" cy="14" r="2" fill="#2D2D2D"/>
<circle cx="34" cy="18" r="2" fill="#2D2D2D"/>
<circle cx="34" cy="26" r="2" fill="#2D2D2D"/>
<circle cx="14" cy="2" r="2" fill="#2D2D2D"/>
<circle cx="14" cy="6" r="2" fill="#2D2D2D"/>
<circle cx="14" cy="14" r="2" fill="#2D2D2D"/>
<circle cx="14" cy="18" r="2" fill="#2D2D2D"/>
<circle cx="14" cy="26" r="2" fill="#2D2D2D"/>
<circle cx="18" cy="2" r="2" fill="#2D2D2D"/>
<circle cx="18" cy="6" r="2" fill="#2D2D2D"/>
<circle cx="18" cy="10" r="2" fill="#2D2D2D"/>
<circle cx="18" cy="14" r="2" fill="#2D2D2D"/>
<circle cx="18" cy="18" r="2" fill="#2D2D2D"/>
<circle cx="18" cy="26" r="2" fill="#2D2D2D"/>
<circle cx="10" cy="2" r="2" fill="#2D2D2D"/>
<circle cx="10" cy="6" r="2" fill="#2D2D2D"/>
<circle cx="10" cy="10" r="2" fill="#2D2D2D"/>
<circle cx="14" cy="10" r="2" fill="#2D2D2D"/>
<circle cx="10" cy="14" r="2" fill="#2D2D2D"/>
<circle cx="10" cy="18" r="2" fill="#2D2D2D"/>
<circle cx="10" cy="26" r="2" fill="#2D2D2D"/>
<circle cx="2" cy="2" r="2" transform="matrix(1 0 0 -1 28 24)" fill="#2D2D2D"/>
<circle cx="2" cy="2" r="2" transform="matrix(1 0 0 -1 24 24)" fill="#2D2D2D"/>
<circle cx="2" cy="2" r="2" transform="matrix(1 0 0 -1 36 24)" fill="#2D2D2D"/>
<circle cx="2" cy="2" r="2" transform="matrix(1 0 0 -1 20 24)" fill="#2D2D2D"/>
<circle cx="2" cy="2" r="2" transform="matrix(1 0 0 -1 32 24)" fill="#2D2D2D"/>
<circle cx="2" cy="2" r="2" transform="matrix(1 0 0 -1 12 24)" fill="#2D2D2D"/>
<circle cx="2" cy="2" r="2" transform="matrix(1 0 0 -1 16 24)" fill="#2D2D2D"/>
<circle cx="2" cy="2" r="2" transform="matrix(1 0 0 -1 8 24)" fill="#2D2D2D"/>
<circle cx="6" cy="6" r="2" fill="#2D2D2D"/>
<circle cx="6" cy="10" r="2" fill="#2D2D2D"/>
<circle cx="6" cy="14" r="2" fill="#2D2D2D"/>
<circle cx="6" cy="18" r="2" fill="#2D2D2D"/>
<circle cx="6" cy="22" r="2" fill="#2D2D2D"/>
<circle cx="2" cy="18" r="2" fill="#2D2D2D"/>
<circle cx="2" cy="10" r="2" fill="#2D2D2D"/>
<circle cx="2" cy="14" r="2" fill="#2D2D2D"/>
</g>
</svg>
