<svg width="36" height="36" viewBox="0 0 36 36" fill="none" xmlns="http://www.w3.org/2000/svg">
<circle cx="18" cy="18" r="18" fill="white"/>
<path d="M28.7992 12.5992C28.7992 15.5816 26.3816 17.9992 23.3992 17.9992C20.4169 17.9992 17.9992 15.5816 17.9992 12.5992C17.9992 9.61688 20.4169 7.19922 23.3992 7.19922C26.3816 7.19922 28.7992 9.61688 28.7992 12.5992Z" fill="#2D2D2D"/>
<path d="M28.7992 23.3992C28.7992 26.3816 26.3816 28.7992 23.3992 28.7992C20.4169 28.7992 17.9992 26.3816 17.9992 23.3992C17.9992 20.4169 20.4169 17.9992 23.3992 17.9992C26.3816 17.9992 28.7992 20.4169 28.7992 23.3992Z" fill="#2D2D2D"/>
<path d="M17.9992 12.5992C17.9992 15.5816 15.5816 17.9992 12.5992 17.9992C9.61688 17.9992 7.19922 15.5816 7.19922 12.5992C7.19922 9.61688 9.61688 7.19922 12.5992 7.19922C15.5816 7.19922 17.9992 9.61688 17.9992 12.5992Z" fill="#2D2D2D"/>
<path d="M17.9992 23.3992C17.9992 26.3816 15.5816 28.7992 12.5992 28.7992C9.61688 28.7992 7.19922 26.3816 7.19922 23.3992C7.19922 20.4169 9.61688 17.9992 12.5992 17.9992C15.5816 17.9992 17.9992 20.4169 17.9992 23.3992Z" fill="#2D2D2D"/>
</svg>
