<svg width="8" height="11" viewBox="0 0 8 11" fill="none" xmlns="http://www.w3.org/2000/svg">
<path d="M0.857143 9.82167L4 8.38095L7.14286 9.82167V0.929496H0.857143V9.82167ZM0.6 10.9526C0.457143 11.0249 0.321429 11.0145 0.192857 10.9216C0.0642857 10.8286 0 10.6995 0 10.5343V0.929496C0 0.68163 0.0857143 0.464748 0.257143 0.278849C0.428571 0.0929496 0.628571 0 0.857143 0H7.14286C7.37143 0 7.57143 0.0929496 7.74286 0.278849C7.91429 0.464748 8 0.68163 8 0.929496V10.5343C8 10.6995 7.93571 10.8286 7.80714 10.9216C7.67857 11.0145 7.54286 11.0249 7.4 10.9526L4 9.37241L0.6 10.9526Z" fill="black"/>
</svg>
