<svg xmlns="http://www.w3.org/2000/svg" width="280" height="216" fill="none" viewBox="0 0 280 216">
  <path fill="#EDEBE9" d="M264 174a2 2 0 1 1-3.999.001A2 2 0 0 1 264 174Z"/>
  <path fill="#EDEBE9" d="M264 178a2 2 0 1 1-3.999.001A2 2 0 0 1 264 178Z"/>
  <path fill="#EDEBE9" d="M264 182a2 2 0 1 1-3.999.001A2 2 0 0 1 264 182Zm-4-12a2 2 0 1 1-3.999.001A2 2 0 0 1 260 170Z"/>
  <path fill="#EDEBE9" d="M260 174a2 2 0 1 1-3.999.001A2 2 0 0 1 260 174Z"/>
  <path fill="#EDEBE9" d="M260 178a2 2 0 1 1-3.999.001A2 2 0 0 1 260 178Z"/>
  <path fill="#EDEBE9" d="M260 182a2 2 0 1 1-3.999.001A2 2 0 0 1 260 182Z"/>
  <path fill="#EDEBE9" d="M260 186a2 2 0 1 1-3.999.001A2 2 0 0 1 260 186Zm0 8a2 2 0 1 1-3.999.001A2 2 0 0 1 260 194Z"/>
  <path fill="#EDEBE9" d="M260 190a2 2 0 1 1-3.999.001A2 2 0 0 1 260 190Zm4-4a2 2 0 1 1-3.999.001A2 2 0 0 1 264 186Z"/>
  <path fill="#EDEBE9" d="M264 190a2 2 0 1 1-3.999.001A2 2 0 0 1 264 190Zm-8-24a2 2 0 1 1-3.999.001A2 2 0 0 1 256 166Z"/>
  <path fill="#EDEBE9" d="M256 170a2 2 0 1 1-3.999.001A2 2 0 0 1 256 170Z"/>
  <path fill="#EDEBE9" d="M256 174a2 2 0 1 1-3.999.001A2 2 0 0 1 256 174Z"/>
  <path fill="#EDEBE9" d="M256 178a2 2 0 1 1-3.999.001A2 2 0 0 1 256 178Z"/>
  <path fill="#EDEBE9" d="M256 182a2 2 0 1 1-3.999.001A2 2 0 0 1 256 182Z"/>
  <path fill="#EDEBE9" d="M256 186a2 2 0 1 1-3.999.001A2 2 0 0 1 256 186Zm0 8a2 2 0 1 1-3.999.001A2 2 0 0 1 256 194Zm-12-28a2 2 0 1 1-3.999.001A2 2 0 0 1 244 166Z"/>
  <path fill="#EDEBE9" d="M244 170a2 2 0 1 1-3.999.001A2 2 0 0 1 244 170Z"/>
  <path fill="#EDEBE9" d="M244 174a2 2 0 1 1-3.999.001A2 2 0 0 1 244 174Zm0 8a2 2 0 1 1-3.999.001A2 2 0 0 1 244 182Z"/>
  <path fill="#EDEBE9" d="M244 186a2 2 0 1 1-3.999.001A2 2 0 0 1 244 186Zm0 8a2 2 0 1 1-3.999.001A2 2 0 0 1 244 194Zm8-28a2 2 0 1 1-3.999.001A2 2 0 0 1 252 166Z"/>
  <path fill="#EDEBE9" d="M252 170a2 2 0 1 1-3.999.001A2 2 0 0 1 252 170Z"/>
  <path fill="#EDEBE9" d="M252 174a2 2 0 1 1-3.999.001A2 2 0 0 1 252 174Z"/>
  <path fill="#EDEBE9" d="M252 178a2 2 0 1 1-3.999.001A2 2 0 0 1 252 178Z"/>
  <path fill="#EDEBE9" d="M252 182a2 2 0 1 1-3.999.001A2 2 0 0 1 252 182Z"/>
  <path fill="#EDEBE9" d="M252 186a2 2 0 1 1-3.999.001A2 2 0 0 1 252 186Zm0 8a2 2 0 1 1-3.999.001A2 2 0 0 1 252 194Zm-4-28a2 2 0 1 1-3.999.001A2 2 0 0 1 248 166Z"/>
  <path fill="#EDEBE9" d="M248 170a2 2 0 1 1-3.999.001A2 2 0 0 1 248 170Z"/>
  <path fill="#EDEBE9" d="M248 174a2 2 0 1 1-3.999.001A2 2 0 0 1 248 174Z"/>
  <path fill="#EDEBE9" d="M248 178a2 2 0 1 1-3.999.001A2 2 0 0 1 248 178Z"/>
  <path fill="#EDEBE9" d="M248 182a2 2 0 1 1-3.999.001A2 2 0 0 1 248 182Z"/>
  <path fill="#EDEBE9" d="M248 186a2 2 0 1 1-3.999.001A2 2 0 0 1 248 186Zm0 8a2 2 0 1 1-3.999.001A2 2 0 0 1 248 194Zm-8-28a2 2 0 1 1-3.999.001A2 2 0 0 1 240 166Z"/>
  <path fill="#EDEBE9" d="M240 170a2 2 0 1 1-3.999.001A2 2 0 0 1 240 170Z"/>
  <path fill="#EDEBE9" d="M240 174a2 2 0 1 1-3.999.001A2 2 0 0 1 240 174Z"/>
  <path fill="#EDEBE9" d="M240 178a2 2 0 1 1-3.999.001A2 2 0 0 1 240 178Z"/>
  <path fill="#EDEBE9" d="M244 178a2 2 0 1 1-3.999.001A2 2 0 0 1 244 178Zm-4 4a2 2 0 1 1-3.999.001A2 2 0 0 1 240 182Z"/>
  <path fill="#EDEBE9" d="M240 186a2 2 0 1 1-3.999.001A2 2 0 0 1 240 186Zm0 8a2 2 0 1 1-3.999.001A2 2 0 0 1 240 194Zm-4-24a2 2 0 1 1-3.999.001A2 2 0 0 1 236 170Zm20 20a2 2 0 1 0-3.999-.001A2 2 0 0 0 256 190Zm0 8a2 2 0 1 0-3.999-.001A2 2 0 0 0 256 198Zm-12-8a2 2 0 1 0-3.999-.001A2 2 0 0 0 244 190Zm0 8a2 2 0 1 0-3.999-.001A2 2 0 0 0 244 198Z"/>
  <path fill="#EDEBE9" d="M252 190a2 2 0 1 0-3.999-.001A2 2 0 0 0 252 190Zm0 8a2 2 0 1 0-3.999-.001A2 2 0 0 0 252 198Z"/>
  <path fill="#EDEBE9" d="M248 190a2 2 0 1 0-3.999-.001A2 2 0 0 0 248 190Zm0 8a2 2 0 1 0-3.999-.001A2 2 0 0 0 248 198Zm-8-8a2 2 0 1 0-3.999-.001A2 2 0 0 0 240 190Zm0 8a2 2 0 1 0-3.999-.001A2 2 0 0 0 240 198Zm-4-24a2 2 0 1 1-3.999.001A2 2 0 0 1 236 174Z"/>
  <path fill="#EDEBE9" d="M236 178a2 2 0 1 1-3.999.001A2 2 0 0 1 236 178Z"/>
  <path fill="#EDEBE9" d="M236 182a2 2 0 1 1-3.999.001A2 2 0 0 1 236 182Z"/>
  <path fill="#EDEBE9" d="M236 186a2 2 0 1 1-3.999.001A2 2 0 0 1 236 186Zm0 8a2 2 0 1 1-3.999.001A2 2 0 0 1 236 194Z"/>
  <path fill="#EDEBE9" d="M236 190a2 2 0 1 1-3.999.001A2 2 0 0 1 236 190Zm-4-4a2 2 0 1 1-3.999.001A2 2 0 0 1 232 186Z"/>
  <path fill="#EDEBE9" d="M232 190a2 2 0 1 1-3.999.001A2 2 0 0 1 232 190Zm0-16a2 2 0 1 1-3.999.001A2 2 0 0 1 232 174Z"/>
  <path fill="#EDEBE9" d="M232 178a2 2 0 1 1-3.999.001A2 2 0 0 1 232 178Z"/>
  <path fill="#EDEBE9" d="M232 182a2 2 0 1 1-3.999.001A2 2 0 0 1 232 182Z"/>
  <path fill="#2D2D2D" d="M252 182a2 2 0 1 1-3.999.001A2 2 0 0 1 252 182Zm-4-4a2 2 0 1 1-3.999.001A2 2 0 0 1 248 178Zm0 8a2 2 0 1 1-3.999.001A2 2 0 0 1 248 186Z"/>
  <path fill="#EDEBE9" d="M68 18a2 2 0 1 1-4 0 2 2 0 0 1 4 0Z"/>
  <path fill="#EDEBE9" d="M68 22a2 2 0 1 1-4 0 2 2 0 0 1 4 0Z"/>
  <path fill="#EDEBE9" d="M68 26a2 2 0 1 1-4 0 2 2 0 0 1 4 0Zm48 0a2 2 0 1 1-4 0 2 2 0 0 1 4 0Z"/>
  <path fill="#EDEBE9" d="M68 30a2 2 0 1 1-4 0 2 2 0 0 1 4 0Zm48 0a2 2 0 1 1-4 0 2 2 0 0 1 4 0Z"/>
  <path fill="#EDEBE9" d="M68 34a2 2 0 1 1-4 0 2 2 0 0 1 4 0Zm48 0a2 2 0 1 1-4 0 2 2 0 0 1 4 0Z"/>
  <path fill="#EDEBE9" d="M68 38a2 2 0 1 1-4 0 2 2 0 0 1 4 0Zm0 8a2 2 0 1 1-4 0 2 2 0 0 1 4 0ZM52 18a2 2 0 1 1-4 0 2 2 0 0 1 4 0Z"/>
  <path fill="#EDEBE9" d="M52 22a2 2 0 1 1-4 0 2 2 0 0 1 4 0Z"/>
  <path fill="#EDEBE9" d="M52 26a2 2 0 1 1-4 0 2 2 0 0 1 4 0Z"/>
  <path fill="#EDEBE9" d="M52 30a2 2 0 1 1-4 0 2 2 0 0 1 4 0Z"/>
  <path fill="#EDEBE9" d="M52 34a2 2 0 1 1-4 0 2 2 0 0 1 4 0Z"/>
  <path fill="#EDEBE9" d="M52 38a2 2 0 1 1-4 0 2 2 0 0 1 4 0Zm0 8a2 2 0 1 1-4 0 2 2 0 0 1 4 0Zm32-28a2 2 0 1 1-4 0 2 2 0 0 1 4 0Z"/>
  <path fill="#EDEBE9" d="M84 22a2 2 0 1 1-4 0 2 2 0 0 1 4 0Z"/>
  <path fill="#EDEBE9" d="M84 26a2 2 0 1 1-4 0 2 2 0 0 1 4 0Z"/>
  <path fill="#EDEBE9" d="M84 30a2 2 0 1 1-4 0 2 2 0 0 1 4 0Z"/>
  <path fill="#EDEBE9" d="M84 34a2 2 0 1 1-4 0 2 2 0 0 1 4 0Z"/>
  <path fill="#EDEBE9" d="M84 38a2 2 0 1 1-4 0 2 2 0 0 1 4 0Zm0 8a2 2 0 1 1-4 0 2 2 0 0 1 4 0ZM64 18a2 2 0 1 1-4 0 2 2 0 0 1 4 0Z"/>
  <path fill="#EDEBE9" d="M64 22a2 2 0 1 1-4 0 2 2 0 0 1 4 0Zm48 0a2 2 0 1 1-4 0 2 2 0 0 1 4 0Z"/>
  <path fill="#EDEBE9" d="M64 26a2 2 0 1 1-4 0 2 2 0 0 1 4 0Zm48 0a2 2 0 1 1-4 0 2 2 0 0 1 4 0Z"/>
  <path fill="#EDEBE9" d="M64 30a2 2 0 1 1-4 0 2 2 0 0 1 4 0Zm48 0a2 2 0 1 1-4 0 2 2 0 0 1 4 0Z"/>
  <path fill="#EDEBE9" d="M64 34a2 2 0 1 1-4 0 2 2 0 0 1 4 0Zm48 0a2 2 0 1 1-4 0 2 2 0 0 1 4 0Z"/>
  <path fill="#EDEBE9" d="M64 38a2 2 0 1 1-4 0 2 2 0 0 1 4 0Zm0 8a2 2 0 1 1-4 0 2 2 0 0 1 4 0Zm48-8a2 2 0 1 1-4 0 2 2 0 0 1 4 0Zm0 8a2 2 0 1 1-4 0 2 2 0 0 1 4 0Z"/>
  <path fill="#EDEBE9" d="M112 42a2 2 0 1 1-4 0 2 2 0 0 1 4 0Zm4-4a2 2 0 1 1-4 0 2 2 0 0 1 4 0Z"/>
  <path fill="#EDEBE9" d="M116 42a2 2 0 1 1-4 0 2 2 0 0 1 4 0ZM48 18a2 2 0 1 1-4 0 2 2 0 0 1 4 0Zm48 0a2 2 0 1 1-4 0 2 2 0 0 1 4 0Z"/>
  <path fill="#EDEBE9" d="M48 22a2 2 0 1 1-4 0 2 2 0 0 1 4 0Zm48 0a2 2 0 1 1-4 0 2 2 0 0 1 4 0Z"/>
  <path fill="#EDEBE9" d="M48 26a2 2 0 1 1-4 0 2 2 0 0 1 4 0Zm48 0a2 2 0 1 1-4 0 2 2 0 0 1 4 0Z"/>
  <path fill="#EDEBE9" d="M48 30a2 2 0 1 1-4 0 2 2 0 0 1 4 0Zm48 0a2 2 0 1 1-4 0 2 2 0 0 1 4 0Z"/>
  <path fill="#EDEBE9" d="M48 34a2 2 0 1 1-4 0 2 2 0 0 1 4 0Zm48 0a2 2 0 1 1-4 0 2 2 0 0 1 4 0Z"/>
  <path fill="#EDEBE9" d="M48 38a2 2 0 1 1-4 0 2 2 0 0 1 4 0Zm0 8a2 2 0 1 1-4 0 2 2 0 0 1 4 0Zm48-8a2 2 0 1 1-4 0 2 2 0 0 1 4 0Zm0 8a2 2 0 1 1-4 0 2 2 0 0 1 4 0ZM80 18a2 2 0 1 1-4 0 2 2 0 0 1 4 0Z"/>
  <path fill="#EDEBE9" d="M80 22a2 2 0 1 1-4 0 2 2 0 0 1 4 0Z"/>
  <path fill="#EDEBE9" d="M80 26a2 2 0 1 1-4 0 2 2 0 0 1 4 0Z"/>
  <path fill="#EDEBE9" d="M80 30a2 2 0 1 1-4 0 2 2 0 0 1 4 0Z"/>
  <path fill="#EDEBE9" d="M80 34a2 2 0 1 1-4 0 2 2 0 0 1 4 0Z"/>
  <path fill="#EDEBE9" d="M80 38a2 2 0 1 1-4 0 2 2 0 0 1 4 0Zm0 8a2 2 0 1 1-4 0 2 2 0 0 1 4 0ZM60 18a2 2 0 1 1-4 0 2 2 0 0 1 4 0Zm48 0a2 2 0 1 1-4 0 2 2 0 0 1 4 0Z"/>
  <path fill="#EDEBE9" d="M60 22a2 2 0 1 1-4 0 2 2 0 0 1 4 0Zm48 0a2 2 0 1 1-4 0 2 2 0 0 1 4 0Z"/>
  <path fill="#EDEBE9" d="M60 26a2 2 0 1 1-4 0 2 2 0 0 1 4 0Zm48 0a2 2 0 1 1-4 0 2 2 0 0 1 4 0Z"/>
  <path fill="#EDEBE9" d="M60 30a2 2 0 1 1-4 0 2 2 0 0 1 4 0Zm48 0a2 2 0 1 1-4 0 2 2 0 0 1 4 0Z"/>
  <path fill="#EDEBE9" d="M60 34a2 2 0 1 1-4 0 2 2 0 0 1 4 0Zm48 0a2 2 0 1 1-4 0 2 2 0 0 1 4 0Z"/>
  <path fill="#EDEBE9" d="M60 38a2 2 0 1 1-4 0 2 2 0 0 1 4 0Zm0 8a2 2 0 1 1-4 0 2 2 0 0 1 4 0Zm48-8a2 2 0 1 1-4 0 2 2 0 0 1 4 0Zm0 8a2 2 0 1 1-4 0 2 2 0 0 1 4 0ZM44 18a2 2 0 1 1-4 0 2 2 0 0 1 4 0Zm48 0a2 2 0 1 1-4 0 2 2 0 0 1 4 0Z"/>
  <path fill="#EDEBE9" d="M44 22a2 2 0 1 1-4 0 2 2 0 0 1 4 0Zm48 0a2 2 0 1 1-4 0 2 2 0 0 1 4 0Z"/>
  <path fill="#EDEBE9" d="M44 26a2 2 0 1 1-4 0 2 2 0 0 1 4 0Zm48 0a2 2 0 1 1-4 0 2 2 0 0 1 4 0Z"/>
  <path fill="#EDEBE9" d="M44 30a2 2 0 1 1-4 0 2 2 0 0 1 4 0Zm48 0a2 2 0 1 1-4 0 2 2 0 0 1 4 0Z"/>
  <path fill="#EDEBE9" d="M44 34a2 2 0 1 1-4 0 2 2 0 0 1 4 0Zm48 0a2 2 0 1 1-4 0 2 2 0 0 1 4 0Z"/>
  <path fill="#EDEBE9" d="M44 38a2 2 0 1 1-4 0 2 2 0 0 1 4 0Zm0 8a2 2 0 1 1-4 0 2 2 0 0 1 4 0Zm48-8a2 2 0 1 1-4 0 2 2 0 0 1 4 0Zm0 8a2 2 0 1 1-4 0 2 2 0 0 1 4 0ZM76 18a2 2 0 1 1-4 0 2 2 0 0 1 4 0Z"/>
  <path fill="#EDEBE9" d="M76 22a2 2 0 1 1-4 0 2 2 0 0 1 4 0Z"/>
  <path fill="#EDEBE9" d="M76 26a2 2 0 1 1-4 0 2 2 0 0 1 4 0Z"/>
  <path fill="#EDEBE9" d="M76 30a2 2 0 1 1-4 0 2 2 0 0 1 4 0Z"/>
  <path fill="#EDEBE9" d="M76 34a2 2 0 1 1-4 0 2 2 0 0 1 4 0Z"/>
  <path fill="#EDEBE9" d="M76 38a2 2 0 1 1-4 0 2 2 0 0 1 4 0Zm0 8a2 2 0 1 1-4 0 2 2 0 0 1 4 0ZM36 18a2 2 0 1 1-4 0 2 2 0 0 1 4 0Z"/>
  <path fill="#EDEBE9" d="M36 22a2 2 0 1 1-4 0 2 2 0 0 1 4 0Z"/>
  <path fill="#EDEBE9" d="M36 26a2 2 0 1 1-4 0 2 2 0 0 1 4 0Zm0 8a2 2 0 1 1-4 0 2 2 0 0 1 4 0Z"/>
  <path fill="#EDEBE9" d="M36 38a2 2 0 1 1-4 0 2 2 0 0 1 4 0Zm0 8a2 2 0 1 1-4 0 2 2 0 0 1 4 0Zm20-28a2 2 0 1 1-4 0 2 2 0 0 1 4 0Z"/>
  <path fill="#EDEBE9" d="M56 22a2 2 0 1 1-4 0 2 2 0 0 1 4 0Z"/>
  <path fill="#EDEBE9" d="M56 26a2 2 0 1 1-4 0 2 2 0 0 1 4 0Z"/>
  <path fill="#EDEBE9" d="M56 30a2 2 0 1 1-4 0 2 2 0 0 1 4 0Z"/>
  <path fill="#EDEBE9" d="M56 34a2 2 0 1 1-4 0 2 2 0 0 1 4 0Z"/>
  <path fill="#EDEBE9" d="M56 38a2 2 0 1 1-4 0 2 2 0 0 1 4 0Zm0 8a2 2 0 1 1-4 0 2 2 0 0 1 4 0ZM40 18a2 2 0 1 1-4 0 2 2 0 0 1 4 0Zm48 0a2 2 0 1 1-4 0 2 2 0 0 1 4 0Z"/>
  <path fill="#EDEBE9" d="M40 22a2 2 0 1 1-4 0 2 2 0 0 1 4 0Zm48 0a2 2 0 1 1-4 0 2 2 0 0 1 4 0Z"/>
  <path fill="#EDEBE9" d="M40 26a2 2 0 1 1-4 0 2 2 0 0 1 4 0Zm48 0a2 2 0 1 1-4 0 2 2 0 0 1 4 0Z"/>
  <path fill="#EDEBE9" d="M40 30a2 2 0 1 1-4 0 2 2 0 0 1 4 0Zm48 0a2 2 0 1 1-4 0 2 2 0 0 1 4 0Z"/>
  <path fill="#EDEBE9" d="M40 34a2 2 0 1 1-4 0 2 2 0 0 1 4 0Zm48 0a2 2 0 1 1-4 0 2 2 0 0 1 4 0Z"/>
  <path fill="#EDEBE9" d="M40 38a2 2 0 1 1-4 0 2 2 0 0 1 4 0Zm0 8a2 2 0 1 1-4 0 2 2 0 0 1 4 0Zm48-8a2 2 0 1 1-4 0 2 2 0 0 1 4 0Zm0 8a2 2 0 1 1-4 0 2 2 0 0 1 4 0ZM72 18a2 2 0 1 1-4 0 2 2 0 0 1 4 0Z"/>
  <path fill="#EDEBE9" d="M72 22a2 2 0 1 1-4 0 2 2 0 0 1 4 0Z"/>
  <path fill="#EDEBE9" d="M72 26a2 2 0 1 1-4 0 2 2 0 0 1 4 0Z"/>
  <path fill="#EDEBE9" d="M72 30a2 2 0 1 1-4 0 2 2 0 0 1 4 0Z"/>
  <path fill="#EDEBE9" d="M72 34a2 2 0 1 1-4 0 2 2 0 0 1 4 0Z"/>
  <path fill="#EDEBE9" d="M72 38a2 2 0 1 1-4 0 2 2 0 0 1 4 0Zm0 8a2 2 0 1 1-4 0 2 2 0 0 1 4 0ZM32 18a2 2 0 1 1-4 0 2 2 0 0 1 4 0Z"/>
  <path fill="#EDEBE9" d="M32 22a2 2 0 1 1-4 0 2 2 0 0 1 4 0Z"/>
  <path fill="#EDEBE9" d="M32 26a2 2 0 1 1-4 0 2 2 0 0 1 4 0Z"/>
  <path fill="#EDEBE9" d="M32 30a2 2 0 1 1-4 0 2 2 0 0 1 4 0Zm4 0a2 2 0 1 1-4 0 2 2 0 0 1 4 0Z"/>
  <path fill="#EDEBE9" d="M32 34a2 2 0 1 1-4 0 2 2 0 0 1 4 0Z"/>
  <path fill="#EDEBE9" d="M32 38a2 2 0 1 1-4 0 2 2 0 0 1 4 0Zm0 8a2 2 0 1 1-4 0 2 2 0 0 1 4 0Zm-4-24a2 2 0 1 1-4 0 2 2 0 0 1 4 0Zm40 20a2 2 0 1 0-4 0 2 2 0 0 0 4 0Zm0 8a2 2 0 1 0-4 0 2 2 0 0 0 4 0Zm-16-8a2 2 0 1 0-4 0 2 2 0 0 0 4 0Zm0 8a2 2 0 1 0-4 0 2 2 0 0 0 4 0Zm32-8a2 2 0 1 0-4 0 2 2 0 0 0 4 0Zm0 8a2 2 0 1 0-4 0 2 2 0 0 0 4 0Zm-20-8a2 2 0 1 0-4 0 2 2 0 0 0 4 0Zm0 8a2 2 0 1 0-4 0 2 2 0 0 0 4 0Zm-16-8a2 2 0 1 0-4 0 2 2 0 0 0 4 0Zm0 8a2 2 0 1 0-4 0 2 2 0 0 0 4 0Zm48-8a2 2 0 1 0-4 0 2 2 0 0 0 4 0Zm0 8a2 2 0 1 0-4 0 2 2 0 0 0 4 0Zm-16-8a2 2 0 1 0-4 0 2 2 0 0 0 4 0Zm0 8a2 2 0 1 0-4 0 2 2 0 0 0 4 0Zm-20-8a2 2 0 1 0-4 0 2 2 0 0 0 4 0Zm0 8a2 2 0 1 0-4 0 2 2 0 0 0 4 0Zm48-8a2 2 0 1 0-4 0 2 2 0 0 0 4 0Zm0 8a2 2 0 1 0-4 0 2 2 0 0 0 4 0Zm-64-8a2 2 0 1 0-4 0 2 2 0 0 0 4 0Zm0 8a2 2 0 1 0-4 0 2 2 0 0 0 4 0Zm48-8a2 2 0 1 0-4 0 2 2 0 0 0 4 0Zm0 8a2 2 0 1 0-4 0 2 2 0 0 0 4 0Zm-16-8a2 2 0 1 0-4 0 2 2 0 0 0 4 0Zm0 8a2 2 0 1 0-4 0 2 2 0 0 0 4 0Zm-40-8a2 2 0 1 0-4 0 2 2 0 0 0 4 0Zm0 8a2 2 0 1 0-4 0 2 2 0 0 0 4 0Zm20-8a2 2 0 1 0-4 0 2 2 0 0 0 4 0Zm0 8a2 2 0 1 0-4 0 2 2 0 0 0 4 0Zm-16-8a2 2 0 1 0-4 0 2 2 0 0 0 4 0Zm0 8a2 2 0 1 0-4 0 2 2 0 0 0 4 0Zm48-8a2 2 0 1 0-4 0 2 2 0 0 0 4 0Zm0 8a2 2 0 1 0-4 0 2 2 0 0 0 4 0Zm12-32a2 2 0 1 1-4 0 2 2 0 0 1 4 0Z"/>
  <path fill="#EDEBE9" d="M100 22a2 2 0 1 1-4 0 2 2 0 0 1 4 0Z"/>
  <path fill="#EDEBE9" d="M100 26a2 2 0 1 1-4 0 2 2 0 0 1 4 0Z"/>
  <path fill="#EDEBE9" d="M100 30a2 2 0 1 1-4 0 2 2 0 0 1 4 0Z"/>
  <path fill="#EDEBE9" d="M100 34a2 2 0 1 1-4 0 2 2 0 0 1 4 0Z"/>
  <path fill="#EDEBE9" d="M100 38a2 2 0 1 1-4 0 2 2 0 0 1 4 0Zm0 8a2 2 0 1 1-4 0 2 2 0 0 1 4 0Zm4-28a2 2 0 1 1-4 0 2 2 0 0 1 4 0Z"/>
  <path fill="#EDEBE9" d="M104 22a2 2 0 1 1-4 0 2 2 0 0 1 4 0Z"/>
  <path fill="#EDEBE9" d="M104 26a2 2 0 1 1-4 0 2 2 0 0 1 4 0Z"/>
  <path fill="#EDEBE9" d="M104 30a2 2 0 1 1-4 0 2 2 0 0 1 4 0Z"/>
  <path fill="#EDEBE9" d="M104 34a2 2 0 1 1-4 0 2 2 0 0 1 4 0Z"/>
  <path fill="#EDEBE9" d="M104 38a2 2 0 1 1-4 0 2 2 0 0 1 4 0Zm0 8a2 2 0 1 1-4 0 2 2 0 0 1 4 0Zm-4-4a2 2 0 1 0-4 0 2 2 0 0 0 4 0Zm0 8a2 2 0 1 0-4 0 2 2 0 0 0 4 0Z"/>
  <path fill="#EDEBE9" d="M104 42a2 2 0 1 0-4 0 2 2 0 0 0 4 0Zm0 8a2 2 0 1 0-4 0 2 2 0 0 0 4 0Zm-32-8a2 2 0 1 0-4 0 2 2 0 0 0 4 0Zm0 8a2 2 0 1 0-4 0 2 2 0 0 0 4 0Zm-40-8a2 2 0 1 0-4 0 2 2 0 0 0 4 0Zm0 8a2 2 0 1 0-4 0 2 2 0 0 0 4 0Zm-4-24a2 2 0 1 1-4 0 2 2 0 0 1 4 0Z"/>
  <path fill="#EDEBE9" d="M28 30a2 2 0 1 1-4 0 2 2 0 0 1 4 0Z"/>
  <path fill="#EDEBE9" d="M28 34a2 2 0 1 1-4 0 2 2 0 0 1 4 0Z"/>
  <path fill="#EDEBE9" d="M28 38a2 2 0 1 1-4 0 2 2 0 0 1 4 0Zm0 8a2 2 0 1 1-4 0 2 2 0 0 1 4 0Z"/>
  <path fill="#EDEBE9" d="M28 42a2 2 0 1 1-4 0 2 2 0 0 1 4 0Zm-4-4a2 2 0 1 1-4 0 2 2 0 0 1 4 0Z"/>
  <path fill="#EDEBE9" d="M24 42a2 2 0 1 1-4 0 2 2 0 0 1 4 0Zm0-16a2 2 0 1 1-4 0 2 2 0 0 1 4 0Z"/>
  <path fill="#EDEBE9" d="M24 30a2 2 0 1 1-4 0 2 2 0 0 1 4 0Z"/>
  <path fill="#EDEBE9" d="M24 34a2 2 0 1 1-4 0 2 2 0 0 1 4 0Z"/>
  <path fill="#2D2D2D" d="M40.58 28.214h1.862l5.026 7.448v-7.448h1.568V38h-1.764l-5.11-7.574V38H40.58v-9.786Zm13.676 2.842c2.03 0 3.472 1.596 3.472 3.598s-1.428 3.542-3.472 3.542-3.5-1.54-3.5-3.556c0-1.988 1.456-3.584 3.5-3.584Zm.014 5.656c1.148 0 1.904-.938 1.904-2.072 0-1.19-.798-2.086-1.932-2.086-1.106 0-1.946.896-1.946 2.086 0 1.176.84 2.072 1.974 2.072Zm4.979-1.134v-4.312h1.54v4.06c0 .966.42 1.456 1.204 1.456.966 0 1.568-.728 1.568-1.89v-3.626h1.54V38h-1.54v-.658c-.42.588-1.134.854-1.918.854-1.512 0-2.394-.994-2.394-2.618Zm7.351-4.312h1.638l1.834 4.55 1.834-4.55h1.624L70.842 38h-1.526L66.6 31.266Zm14.274 2.968v.714h-4.942c.168 1.148.938 1.848 1.988 1.848.896 0 1.372-.532 1.512-.798l1.386.434c-.322.77-1.316 1.722-2.912 1.722-2.044 0-3.402-1.526-3.402-3.556 0-2.016 1.344-3.598 3.332-3.598 1.834 0 3.038 1.344 3.038 3.234Zm-4.872-.49h3.5c-.042-.784-.714-1.414-1.652-1.414-.91 0-1.61.574-1.848 1.414Zm8.039-.35-1.344-.182c.196-1.428 1.218-2.156 2.646-2.156 1.512 0 2.674.798 2.674 2.464v2.604c0 .546.35.56.364.56h.084l.14 1.316h-1.302c-.098 0-.742-.028-.742-.938-.252.798-1.134 1.078-1.876 1.078-1.274 0-2.184-.84-2.184-2.03 0-2.016 2.548-2.198 4.018-2.506-.042-.812-.336-1.176-1.344-1.176-.602 0-1.022.14-1.134.966Zm2.506 1.526-.518.07c-1.47.196-2.044.49-2.044 1.036 0 .574.616.7 1.036.7.98 0 1.526-.7 1.526-1.596v-.21Zm3.313.658v-4.312h1.54v4.06c0 .966.42 1.456 1.204 1.456.966 0 1.568-.728 1.568-1.89v-3.626h1.54V38h-1.54v-.658c-.42.588-1.134.854-1.918.854-1.512 0-2.394-.994-2.394-2.618Z"/>
</svg>
